<?xml version="1.0" encoding="utf-8"?>
<!-- Generator: Adobe Illustrator 19.1.0, SVG Export Plug-In . SVG Version: 6.00 Build 0)  -->
<!DOCTYPE svg PUBLIC "-//W3C//DTD SVG 1.1//EN" "http://www.w3.org/Graphics/SVG/1.1/DTD/svg11.dtd">
<svg version="1.1" id="Layer_1" xmlns="http://www.w3.org/2000/svg" xmlns:xlink="http://www.w3.org/1999/xlink" x="0px" y="0px"
	 viewBox="0 0 16 16" style="enable-background:new 0 0 16 16;" xml:space="preserve">
<g>
	<path style="fill:#EEEEEE;" d="M7.818,1.64c1.718-0.126,2.12,0.875,2.35,1.298c0.212,0.087,0.212,0.087,0.212,0.087
		c2.03,0.836,2.153,6.095,2.153,6.095l1.468,4.331L9.29,13.424c0,0-0.589,0.936-1.472,0.936c-0.954,0-1.615-0.909-1.615-0.909H1.999
		L3.47,9.112c0,0-0.343-5.01,2.245-6.089l0.215-0.089C5.929,2.934,6.322,1.749,7.818,1.64z M5.1,1.594c-3.6,1.5-3.1,7.5-3.1,7.5
		l-2,5.9h5.488c0,0,0.677,1,2.322,1s2.184-1,2.184-1H16l-2-5.9c0,0,0.4-6.1-3-7.5c-0.9-1.1-1.5-1.596-3.134-1.596
		S5.5,1.094,5.1,1.594z"/>
</g>
</svg>
