<?xml version="1.0" encoding="utf-8"?>
<!-- Generator: Adobe Illustrator 18.1.1, SVG Export Plug-In . SVG Version: 6.00 Build 0)  -->
<!DOCTYPE svg PUBLIC "-//W3C//DTD SVG 1.1//EN" "http://www.w3.org/Graphics/SVG/1.1/DTD/svg11.dtd">
<svg version="1.1" id="Layer_1" xmlns="http://www.w3.org/2000/svg" xmlns:xlink="http://www.w3.org/1999/xlink" x="0px" y="0px"
	 viewBox="0 0 30 154" enable-background="new 0 0 30 154" xml:space="preserve">
<g>
	<g>
		<rect x="14" fill="#AAAAAA" width="1" height="154"/>
	</g>
	<g>
		<path fill="#FFFFFF" d="M15,63C7.3,63,1,69.3,1,77c0,7.7,6.3,14,14,14s14-6.3,14-14C29,69.3,22.7,63,15,63z"/>
		<path fill="#AAAAAA" d="M15,62C6.7,62,0,68.7,0,77c0,8.3,6.7,15,15,15s15-6.7,15-15C30,68.7,23.3,62,15,62z M15,91
			C7.3,91,1,84.7,1,77c0-7.7,6.3-14,14-14s14,6.3,14,14C29,84.7,22.7,91,15,91z"/>
	</g>
	<polygon fill="#999999" points="18.4,67 10.2,77 18.4,87 20.2,85.2 13.5,77 20.2,68.8 	"/>
</g>
</svg>
