<?xml version="1.0" encoding="iso-8859-1"?><!DOCTYPE svg PUBLIC "-//W3C//DTD SVG 1.1//EN" "http://www.w3.org/Graphics/SVG/1.1/DTD/svg11.dtd"><svg width="1114" height="1280" viewBox="0 0 1114 1280" xmlns="http://www.w3.org/2000/svg" xmlns:xlink="http://www.w3.org/1999/xlink"><view id="icon_access" viewBox="1033 799 18 18"/><svg viewBox="0 0 18 18" enable-background="new 0 0 18 18" width="18" height="18" x="1033" y="799"><path fill="#3BB44A" d="M8.105 9.298L5.72 6.918 3.933 8.7l4.172 4.173 1.79-1.79 4.172-4.168-1.786-1.79zM16 2v14H2V2h14m.323-2H1.677C.755 0 0 .755 0 1.677v14.645C0 17.245.755 18 1.677 18h14.645c.923 0 1.678-.755 1.678-1.677V1.677C18 .755 17.245 0 16.323 0z"/></svg><view id="icon_add_column" viewBox="827 874 16 16"/><svg viewBox="0 0 16 16" enable-background="new 0 0 16 16" width="16" height="16" x="827" y="874"><path d="M16 8.77V7.23H8.77V0H7.23v7.23H.003L0 8.77l7.232-.003V16l1.537-.002v-7.23H16z" fill-rule="evenodd" clip-rule="evenodd" fill="#666"/></svg><view id="icon_add_column_hover" viewBox="747 874 16 16"/><svg viewBox="0 0 16 16" enable-background="new 0 0 16 16" width="16" height="16" x="747" y="874"><path d="M16 8.77V7.23H8.77V0H7.23v7.23H.003L0 8.77l7.232-.003V16l1.537-.002v-7.23H16z" fill-rule="evenodd" clip-rule="evenodd" fill="#05A4FF"/></svg><view id="icon_alarms" viewBox="955 874 16 16"/><svg viewBox="0 0 16 16" enable-background="new 0 0 16 16" width="16" height="16" x="955" y="874"><path d="M8 1.778c-3.43 0-6.222 2.79-6.222 6.22 0 3.432 2.79 6.224 6.222 6.224s6.222-2.792 6.222-6.224c0-3.43-2.79-6.22-6.222-6.22z" fill="none"/><path d="M8 0C3.588 0 0 3.588 0 7.998 0 12.41 3.588 16 8 16c4.41 0 8-3.59 8-8.002C16 3.588 12.412 0 8 0zm0 14.222c-3.43 0-6.222-2.792-6.222-6.224 0-3.43 2.79-6.22 6.222-6.22s6.222 2.79 6.222 6.22c0 3.432-2.79 6.224-6.222 6.224z" fill="#EC1C24"/><g fill="#EC1C24"><path d="M8 10.284c-.588 0-1.064.467-1.064 1.04S7.413 12.367 8 12.367c.59 0 1.065-.467 1.065-1.04 0-.576-.476-1.042-1.066-1.042zM7.998 3.635c-.857 0-1.554.682-1.554 1.52l1.02 4.11h1.073l1.02-4.11c0-.84-.697-1.52-1.56-1.52z"/></g></svg><view id="icon_alert" viewBox="683 890 16 16"/><svg viewBox="0 0 16 16" enable-background="new 0 0 16 16" width="16" height="16" x="683" y="890"><path fill="none" d="M14.1 13.5l-1.4-4.7v-.4c0-.1.8-4.4-2.2-5.5h-.1l-.2-.2C9.5 1.8 8.8 1.3 8 1.3c-.5 0-1.3.5-2 1.4l-.3.3C2.5 4.1 3.4 8.8 3.4 8.8v.3l-1.5 4.4h12.2z"/><path fill="#eee" d="M14 8.7c.1-1 .5-5.4-3-6.9C10 .6 9 0 8 0 6.7 0 5.5 1 5.1 1.6 3.4 2.4 1.6 4.2 2 9l-2 5.9h6c.4.6 1 1 1.8 1s1.6-.4 2.1-1H16l-2-6.2zm-10.6.1s-.9-4.7 2.2-5.9l.4-.2c.7-.8 1.5-1.4 2-1.4.8 0 1.5.4 2.1 1.4l.2.2h.1c3 1.2 2.2 5.4 2.2 5.5v.4l1.4 4.7H1.9l1.5-4.4v-.3z"/></svg><view id="icon_alert_count" viewBox="1023 725 30 30"/><svg width="30" height="30" viewBox="0 0 30 30" x="1023" y="725"><circle cx="14.958" cy="15.021" r="13.5" fill="#EC1C24"/></svg><view id="icon_archive_purge" viewBox="715 890 16 16"/><svg viewBox="0 0 16 16" enable-background="new 0 0 16 16" width="16" height="16" x="715" y="890"><g fill="#09f"><path d="M4 7h6v1H4zM4 10h6v1H4zM12.886 14.935H1.55v-13.3h6.29L8.383.57H.407V16h13.62V7.03c-.352.203-.737.358-1.14.475v7.43zM11.133 1.454l.026 1.123c1.91-.02 3.204 1.57 3.568 2.453.227-.464.366-.978.366-1.53 0-1.933-1.567-3.5-3.5-3.5s-3.5 1.567-3.5 3.5c0 .17.027.335.05.5H4v1h4.443c.563 1.18 1.756 2 3.15 2 1.076 0 2.027-.496 2.67-1.26-.564-1.49-2.01-2.39-3.078-2.326l.125 1.123c-.514-.588-1.37-1.17-2.164-1.414.75-.378 1.435-1.055 1.987-1.67z"/></g></svg><view id="icon_archive_purge_hover" viewBox="747 890 16 16"/><svg viewBox="0 0 16 16" enable-background="new 0 0 16 16" width="16" height="16" x="747" y="890"><g fill="#444"><path d="M4 7h6v1H4zM4 10h6v1H4zM12.886 14.935H1.55v-13.3h6.29L8.383.57H.407V16h13.62V7.03c-.352.203-.737.358-1.14.475v7.43zM11.133 1.454l.026 1.123c1.91-.02 3.204 1.57 3.568 2.453.227-.464.366-.978.366-1.53 0-1.933-1.567-3.5-3.5-3.5s-3.5 1.567-3.5 3.5c0 .17.027.335.05.5H4v1h4.443c.563 1.18 1.756 2 3.15 2 1.076 0 2.027-.496 2.67-1.26-.564-1.49-2.01-2.39-3.078-2.326l.125 1.123c-.514-.588-1.37-1.17-2.164-1.414.75-.378 1.435-1.055 1.987-1.67z"/></g></svg><view id="icon_arrow_down" viewBox="991 799 24 18"/><svg viewBox="0 0 24 18" enable-background="new 0 0 24 18" width="24" height="18" x="991" y="799"><path d="M.286 12.513l5.984 5.24c.09.08.198.14.318.184.24.084.51.084.75 0 .118-.044.228-.105.32-.184l6.054-5.303c.383-.332.383-.868 0-1.2-.383-.33-1.003-.33-1.386 0l-5.4 4.787L1.67 11.31c-.382-.33-1.002-.33-1.385 0-.38.334-.38.87 0 1.203z" fill="#05A4FF"/></svg><view id="icon_arrow_downFW" viewBox="1086 701 14 8"/><svg viewBox="0 0 14 8" enable-background="new 0 0 14 8" width="14" height="8" x="1086" y="701"><path fill="#333" d="M0 1.273l6.934 6.73L14 1.276 12.727.005 6.934 5.457 1.272 0z"/></svg><view id="icon_arrow_down_centered" viewBox="1021 697 8 4"/><svg viewBox="0 0 8 4" enable-background="new 0 0 8 4" width="8" height="4" x="1021" y="697"><path fill="#09f" d="M0 .727L4 4 8 .73 7.273.003 4 2.546.727 0z"/></svg><view id="icon_arrow_down_centered_disable" viewBox="1013 697 8 4"/><svg viewBox="0 0 8 4" enable-background="new 0 0 8 4" width="8" height="4" x="1013" y="697"><path fill="#ccc" d="M0 .727L4 4 8 .73 7.273.003 4 2.546.727 0z"/></svg><view id="icon_arrow_down_dark" viewBox="941 755 6 6"/><svg viewBox="0 0 6 6" enable-background="new 0 0 6 6" width="6" height="6" x="941" y="755"><path fill="#989898" d="M3 5.5l-3-5h6z"/></svg><view id="icon_arrow_down_grid" viewBox="973 847 10 12"/><svg viewBox="0 0 10 12" enable-background="new 0 0 10 12" width="10" height="12" x="973" y="847"><path fill="#fff" d="M8.6 6.205L6 8.79V0H4v8.8L1.43 6.207.177 7.25l4.672 4.61.148.14.144-.14 4.68-4.606z"/></svg><view id="icon_arrow_down_grid_hover" viewBox="963 847 10 12"/><svg viewBox="0 0 10 12" enable-background="new 0 0 10 12" width="10" height="12" x="963" y="847"><path fill="#444" d="M8.6 6.205L6 8.79V0H4v8.8L1.43 6.207.177 7.25l4.672 4.61.148.14.144-.14 4.68-4.606z"/></svg><view id="icon_arrow_down_small_blue" viewBox="731 890 16 16"/><svg viewBox="0 0 16 16" enable-background="new 0 0 16 16" width="16" height="16" x="731" y="890"><path fill="#09f" d="M0 .8h16L8 15.2z"/></svg><view id="icon_arrow_left_25X25" viewBox="1085 764 25 25"/><svg viewBox="0 0 25 25" enable-background="new 0 0 25 25" width="25" height="25" x="1085" y="764"><path d="M1 24h23V1H1v23zm9.065-11.882c.043-.11.102-.213.178-.295l3.293-5.56c.322-.353.84-.353 1.16 0 .322.356.322.932 0 1.287L11.9 12.432l2.857 5.015c.32.355.32.932 0 1.287-.32.356-.84.356-1.16 0l-3.354-5.624c-.076-.084-.135-.185-.178-.297-.082-.222-.082-.472 0-.695z" fill="#fff"/><path d="M0 0v25h25V0H0zm24 24H1V1h23v23z" fill="#ccc"/><path d="M10.243 13.11l3.354 5.625c.32.356.84.356 1.16 0 .32-.355.32-.932 0-1.287L11.9 12.433l2.796-4.882c.322-.355.322-.93 0-1.286-.32-.353-.838-.353-1.16 0l-3.293 5.56c-.076.082-.135.184-.178.295-.082.222-.082.472 0 .694.043.11.102.213.178.297z" fill="#05A4FF"/></svg><view id="icon_arrow_left_small" viewBox="1110 780 4 8"/><svg viewBox="10.5 8.5 4 8" enable-background="new 10.5 8.5 4 8" width="4" height="8" x="1110" y="780"><path d="M13.637 8.663l-2.995 3.42c-.045.05-.08.113-.105.182-.048.137-.048.29 0 .428.025.068.06.13.105.183l3.03 3.46c.19.22.497.22.687 0 .188-.22.188-.573 0-.792l-2.737-3.086 2.7-3.003c.19-.22.19-.573 0-.792-.19-.218-.495-.218-.686 0z" fill="#444"/></svg><view id="icon_arrow_left_small_blue" viewBox="1109 837 4 8"/><svg viewBox="10.5 8.5 4 8" enable-background="new 10.5 8.5 4 8" width="4" height="8" x="1109" y="837"><path d="M13.637 8.663l-2.995 3.42c-.045.05-.08.113-.105.182-.048.137-.048.29 0 .428.025.068.06.13.105.183l3.03 3.46c.19.22.497.22.687 0 .188-.22.188-.573 0-.792l-2.737-3.086 2.7-3.003c.19-.22.19-.573 0-.792-.19-.218-.495-.218-.686 0z" fill="#05A4FF"/></svg><view id="icon_arrow_nav_sm_down" viewBox="1045 697 8 4"/><svg viewBox="0 0 8 4" enable-background="new 0 0 8 4" width="8" height="4" x="1045" y="697"><path d="M.163.864l3.42 2.995c.05.044.113.08.182.104.137.048.29.048.428 0 .068-.025.13-.06.183-.105L7.836.827c.22-.19.22-.496 0-.686-.22-.19-.573-.19-.792 0L3.958 2.878.955.178c-.22-.19-.573-.19-.792 0-.218.19-.218.495 0 .686z" fill="#444"/></svg><view id="icon_arrow_nav_sm_down_hover" viewBox="1053 697 8 4"/><svg viewBox="0 0 8 4" enable-background="new 0 0 8 4" width="8" height="4" x="1053" y="697"><path d="M.163.864l3.42 2.995c.05.044.113.08.182.104.137.048.29.048.428 0 .068-.025.13-.06.183-.105L7.836.827c.22-.19.22-.496 0-.686-.22-.19-.573-.19-.792 0L3.958 2.878.955.178c-.22-.19-.573-.19-.792 0-.218.19-.218.495 0 .686z" fill="#05A4FF"/></svg><view id="icon_arrow_rightFW" viewBox="1105 799 8 14"/><svg viewBox="0 0 8 14" enable-background="new 0 0 8 14" width="8" height="14" x="1105" y="799"><path fill="#666" d="M1.272 14l6.73-6.933L1.275 0 .004 1.275l5.452 5.793L0 12.73z"/></svg><view id="icon_arrow_right_25X25" viewBox="942 799 25 25"/><svg viewBox="0 0 25 25" enable-background="new 0 0 25 25" width="25" height="25" x="942" y="799"><path d="M24 1H1v23h23V1zm-9.065 11.814c-.043.11-.102.213-.178.297l-3.354 5.625c-.32.356-.84.356-1.16 0-.32-.355-.32-.932 0-1.287l2.856-5.015-2.796-4.882c-.322-.355-.322-.93 0-1.286.32-.353.838-.353 1.16 0l3.293 5.56c.076.082.135.184.178.295.082.22.082.47 0 .694z" fill="#fff"/><path d="M0 0v25h25V0H0zm1 1h23v23H1V1z" fill="#ccc"/><path d="M14.757 13.11l-3.354 5.625c-.32.356-.84.356-1.16 0-.32-.355-.32-.932 0-1.287l2.856-5.015-2.796-4.882c-.322-.355-.322-.93 0-1.286.32-.353.838-.353 1.16 0l3.293 5.56c.076.082.135.184.178.295.082.222.082.472 0 .694-.043.11-.102.213-.178.297z" fill="#05A4FF"/></svg><view id="icon_arrow_right_dark" viewBox="935 755 6 6"/><svg viewBox="0 0 6 6" enable-background="new 0 0 6 6" width="6" height="6" x="935" y="755"><path fill="#989898" d="M5.5 3l-5 3V0z"/></svg><view id="icon_arrow_right_small" viewBox="1011.5 847 4 8"/><svg viewBox="0 0 4 8" enable-background="new 0 0 4 8" width="4" height="8" x="1011.5" y="847"><path d="M.864 7.837l2.995-3.42c.044-.05.08-.113.104-.182.048-.137.048-.29 0-.428-.025-.068-.06-.13-.105-.183L.827.164c-.19-.22-.496-.22-.686 0-.19.22-.19.573 0 .792l2.736 3.086-2.7 3.003c-.19.22-.19.573 0 .792.19.218.495.218.686 0z" fill="#444"/></svg><view id="icon_arrow_right_small_blue" viewBox="1015.5 847 4 8"/><svg viewBox="0 0 4 8" enable-background="new 0 0 4 8" width="4" height="8" x="1015.5" y="847"><path d="M.864 7.837l2.995-3.42c.044-.05.08-.113.104-.182.048-.137.048-.29 0-.428-.025-.068-.06-.13-.105-.183L.827.164c-.19-.22-.496-.22-.686 0-.19.22-.19.573 0 .792l2.736 3.086-2.7 3.003c-.19.22-.19.573 0 .792.19.218.495.218.686 0z" fill="#05A4FF"/></svg><view id="icon_arrow_up_grid" viewBox="983 847 10 12"/><svg viewBox="0 0 10 12" enable-background="new 0 0 10 12" width="10" height="12" x="983" y="847"><path fill="#fff" d="M1.398 5.795L4 3.21V12h2V3.2l2.57 2.594L9.82 4.75 5.147.14 5 0l-.145.14L.177 4.745z"/></svg><view id="icon_arrow_up_grid_hover" viewBox="917 847 10 12"/><svg viewBox="0 0 10 12" enable-background="new 0 0 10 12" width="10" height="12" x="917" y="847"><path fill="#444" d="M1.398 5.795L4 3.21V12h2V3.2l2.57 2.594L9.82 4.75 5.147.14 5 0l-.145.14L.177 4.745z"/></svg><view id="icon_badge" viewBox="967 799 24 24"/><svg viewBox="294 384 24 24" enable-background="new 294 384 24 24" width="24" height="24" x="967" y="799"><circle fill="#EC1C24" cx="306" cy="396" r="12"/></svg><view id="icon_blue_circle" viewBox="819 829 32 32"/><svg viewBox="0 0 32 32" enable-background="new 0 0 32 32" width="32" height="32" x="819" y="829"><circle cx="16" cy="16" r="16" fill="#05A4FF"/></svg><view id="icon_burst_white" viewBox="3 0 664 1040"/><svg viewBox="0 0 664 1040" enable-background="new 0 0 664 1040" width="664" height="1040" x="3"><g opacity=".5" fill="#fff"><path d="M662 80.638C635.07 53.76 608.14 26.888 581.212 0H13.3C-17.974 90.203-.88 192.198 60.685 268.078c62.027 76.72 157.862 94.815 248.28 119.33C426.716 418.567 544.494 450.365 662 481.7V80.638zM662 141.125c-117.506 31.565-235.282 62.85-353.034 94.54-90.418 24.294-186.253 42.5-248.28 119.11-72.934 90.115-83.455 216.513-25.09 316.752 58.27 100.374 172.837 154.75 287.61 136.893 97.664-15.454 161.172-89.078 227.486-154.97 37.134-37.01 74.222-74.04 111.307-111.07V141.125zM574.006.138c-19.138 71.157-38.03 141.216-57.138 212.283-32.49 121.714-65.058 243.426-97.83 364.917-24.19 90.43-56.333 182.276-20.73 274.325 33.748 87.056 107.9 151.754 196.367 173.22C611.707 1029.623 662 1040 662 1040V.138h-87.994z" opacity=".33" enable-background="new"/><path d="M662 .138H405.713c.088.313.77 2.37.857 2.683 4.14 15.215 8.416 30.392 12.467 45.516 32.77 121.712 65.34 243.13 97.83 364.898C564.842 591.777 661.62 946.61 662 945.194V.14z" opacity=".6" enable-background="new"/><path d="M662 78.33c-52.917 52.817-105.83 105.61-158.815 158.295-131.344 130.787-262.538 261.74-393.58 392.288 179.017-47.74 358.22-95.7 537.347-143.81 5.01-1.335 10.032-2.683 15.046-4.02V78.332zM662 141.744c-5.015-1.345-10.036-2.684-15.047-4.033C474.078 91.408 301.247 46.366 128.47.14h-13.73c129.373 128.944 258.78 257.192 388.445 386.02 52.986 52.83 105.9 105.69 158.814 158.555v-402.97z" opacity=".33" enable-background="new"/></g></svg><view id="icon_carrot_navigation" viewBox="1043 701 26 14"/><svg viewBox="0 0 26 14" enable-background="new 0 0 26 14" width="26" height="14" x="1043" y="701"><path fill="#fff" d="M12.99 8.882L3.882.016l18.193.01z"/><path fill="#ccc" d="M0 0h3.68v.513H0zM22.76 0H26v.513h-3.24z"/><path fill="#2298A4" d="M.043.008L13.005 13.27 25.935 0h-3.833l-9.097 8.88L3.893 0z"/></svg><view id="icon_checkbox" viewBox="779 874 16 16"/><svg viewBox="0 0 16 16" enable-background="new 0 0 16 16" width="16" height="16" x="779" y="874"><path d="M1 15h14V1H1v14z" fill="#fff"/><path d="M0 0v16h16V0H0zm15 15H1V1h14v14z" fill="#CDCCCB"/></svg><view id="icon_checkbox_checked" viewBox="699 874 16 16"/><svg viewBox="0 0 16 16" enable-background="new 0 0 16 16" width="16" height="16" x="699" y="874"><path d="M1 15h14V1H1v14zM4.584 4.948l2.828 2.828 4.95-4.95 2.12 2.122-7.07 7.07-4.95-4.95 2.122-2.12z" fill="#fff"/><path d="M0 0v16h16V0H0zm15 15H1V1h14v14z" fill="#CDCCCB"/><path fill="#05A4FF" d="M14.482 4.948l-2.12-2.12-4.95 4.948-2.828-2.828-2.12 2.12 4.948 4.95z"/></svg><view id="icon_circle_blue" viewBox="787 829 32 32"/><svg viewBox="0 0 32 32" enable-background="new 0 0 32 32" width="32" height="32" x="787" y="829"><circle cx="16" cy="16" r="16" fill="#05A4FF"/></svg><view id="icon_circle_blue_hover" viewBox="1021 764 32 32"/><svg viewBox="0 0 32 32" enable-background="new 0 0 32 32" width="32" height="32" x="1021" y="764"><path d="M16 1.778c7.842 0 14.222 6.38 14.222 14.222S23.842 30.222 16 30.222 1.778 23.842 1.778 16 8.158 1.778 16 1.778M16 0C7.163 0 0 7.163 0 16s7.163 16 16 16 16-7.163 16-16S24.837 0 16 0z" fill="#05A4FF"/></svg><view id="icon_circle_grey" viewBox="989 764 32 32"/><svg viewBox="0 0 32 32" enable-background="new 0 0 32 32" width="32" height="32" x="989" y="764"><circle cx="16" cy="16" r="16" fill="#ccc"/></svg><view id="icon_close" viewBox="981 829 16 16"/><svg viewBox="0 0 16 16" enable-background="new 0 0 16 16" width="16" height="16" x="981" y="829"><path fill="#666" d="M16.5-.597L15.096-2 8.5 4.596 1.903-2 .5-.598 7.098 6 .5 12.597 1.905 14 8.5 7.402 15.096 14l1.404-1.403L9.903 6z"/></svg><view id="icon_close16X16" viewBox="901 829 16 16"/><svg viewBox="0 0 16 16" enable-background="new 0 0 16 16" width="16" height="16" x="901" y="829"><path fill="#666" d="M16 1.403L14.596 0 8 6.596 1.403 0 0 1.402 6.598 8 0 14.597 1.405 16 8 9.402 14.596 16 16 14.597 9.403 8z"/></svg><view id="icon_close_12X12" viewBox="927 847 12 12"/><svg viewBox="0 0 12 12" enable-background="new 0 0 12 12" width="12" height="12" x="927" y="847"><path fill="#666" d="M12 1.052L10.947 0 6 4.947 1.052 0 0 1.05 4.95 6 0 10.948 1.054 12 6 7.052 10.947 12 12 10.948 7.052 6z"/></svg><view id="icon_collapse_all" viewBox="667 890 16 16"/><svg viewBox="1 -1 16 16" enable-background="new 1 -1 16 16" width="16" height="16" x="667" y="890"><style type="text/css">.st0{fill:#444}</style><path class="st0" d="M15.9-1L11 4.1V-1h-1v7.2h7V5.1h-4.8L17 .2zM7 7.8H1v1.1h4.8l-4.8 5L2.1 15 7 9.9V15h1V7.8z"/></svg><view id="icon_collapse_all_disable" viewBox="891 874 16 16"/><svg viewBox="0 0 16 16" enable-background="new 0 0 16 16" width="16" height="16" x="891" y="874"><g fill="#ccc"><path d="M1.046 16.004l4.93-5.01v5.003h1V9H-.023v.998h4.844l-4.847 4.91zM9.948 7h6.027V6h-4.85l4.847-4.903-1.07-1.093-4.926 5.014V0h-1v7z"/></g></svg><view id="icon_collapse_all_hover" viewBox="885 829 16 16"/><svg viewBox="0 0 16 16" enable-background="new 0 0 16 16" width="16" height="16" x="885" y="829"><style type="text/css">.st0{fill:#09f}</style><path class="st0" d="M14.9 0L10 5.1V0H9v7.2h7V6.1h-4.8L16 1.2zM6 8.8H0v1.1h4.8l-4.8 5L1.1 16 6 10.9V16h1V8.8z"/></svg><view id="icon_configure" viewBox="912 799 30 30"/><svg width="30" height="30" viewBox="0 0 30 30" x="912" y="799"><path d="M23.553 22.98l-9.336-8.25-1.12 1.26L3.88 7.85l.002-.006H3.87l-.645-.134-.647-.13.207.63.214.626.005-.004 9.216 8.14-1.12 1.257 9.337 8.243c.967.86 2.453.77 3.313-.197.865-.965.777-2.445-.197-3.297z" fill="none" stroke="#fff" stroke-width=".954" stroke-linecap="round" stroke-linejoin="round" stroke-miterlimit="10"/><g fill="none" stroke="#fff" stroke-width=".954" stroke-miterlimit="10"><path d="M26.113 6.698l-4.63 5.188c-.524.59-1.432.643-2.024.12l-1.708-1.512c-.59-.523-.645-1.425-.12-2.014l4.626-5.188c-2.137-.607-4.53 0-6.104 1.766-1.52 1.71-1.875 4.053-1.113 6.048-.124.083-.237.183-.342.3l-2.982 3.34 1.405 1.243 1.122-1.26 2.814 2.485 1.856-2.087c.106-.116.19-.24.258-.374 2.086.517 4.384-.108 5.902-1.818 1.576-1.765 1.9-4.2 1.04-6.238zM11.125 18.227l1.12-1.256-1.404-1.24-6.136 6.88c-.64.72-.573 1.826.147 2.467l1.593 1.404c.723.64 1.836.575 2.482-.145l5.013-5.623-2.813-2.485z"/></g></svg><view id="icon_create" viewBox="917 829 16 16"/><svg viewBox="0 0 16 16" enable-background="new 0 0 16 16" width="16" height="16" x="917" y="829"><path fill="#09f" d="M16 7.2H8.8V0H7.2v7.2H0v1.6h7.2V16h1.6V8.8H16z"/></svg><view id="icon_create_disable" viewBox="933 829 16 16"/><svg viewBox="0 0 16 16" enable-background="new 0 0 16 16" width="16" height="16" x="933" y="829"><path fill="#ccc" d="M16 7.2H8.8V0H7.2v7.2H0v1.6h7.2V16h1.6V8.8H16z"/></svg><view id="icon_create_hover" viewBox="949 829 16 16"/><svg viewBox="0 0 16 16" enable-background="new 0 0 16 16" width="16" height="16" x="949" y="829"><path fill="#444" d="M16 7.2H8.8V0H7.2v7.2H0v1.6h7.2V16h1.6V8.8H16z"/></svg><view id="icon_critical_alert1" viewBox="965 829 16 16"/><svg viewBox="1 1 16 16" enable-background="new 1 1 16 16" width="16" height="16" x="965" y="829"><path d="M9 2.778c-3.43 0-6.222 2.79-6.222 6.22 0 3.432 2.79 6.224 6.222 6.224s6.222-2.792 6.222-6.224c0-3.43-2.79-6.22-6.222-6.22z" fill="none"/><path d="M9 1C4.588 1 1 4.588 1 8.998 1 13.41 4.588 17 9 17c4.41 0 8-3.59 8-8.002C17 4.588 13.412 1 9 1zm0 14.222c-3.43 0-6.222-2.792-6.222-6.224 0-3.43 2.79-6.22 6.222-6.22s6.222 2.79 6.222 6.22c0 3.432-2.79 6.224-6.222 6.224z" fill="#EC1C24"/><g fill="#EC1C24"><path d="M9 11.284c-.588 0-1.064.467-1.064 1.04 0 .575.477 1.042 1.063 1.042.59 0 1.065-.467 1.065-1.04 0-.576-.476-1.042-1.066-1.042zM8.998 4.635c-.857 0-1.554.682-1.554 1.52l1.02 4.11h1.073l1.02-4.11c0-.84-.697-1.52-1.56-1.52z"/></g></svg><view id="icon_date_picker" viewBox="1087 799 18 18"/><svg viewBox="0 0 18 18" enable-background="new 0 0 18 18" width="18" height="18" x="1087" y="799"><g fill-rule="evenodd" clip-rule="evenodd" fill="#05A4FF"><path d="M15.75 2.25H13.5V0h-2.248v2.25h-1.127V0h-2.25v2.25H6.752V0H4.5v2.25H2.252C1.01 2.25 0 3.255 0 4.5v11.25C0 16.99 1.01 18 2.252 18H15.75c1.242 0 2.25-1.008 2.25-2.25V4.5c0-1.244-1.008-2.25-2.25-2.25zm0 13.5H2.252V4.5H4.5v1.123h2.252V4.5h1.123v1.123h2.25V4.5h1.127v1.123H13.5V4.5h2.25v11.25zM4.5 7.874h2.252v2.25H4.5zM7.875 7.874h2.25v2.25h-2.25zM11.252 7.874H13.5v2.25h-2.248zM4.5 12.374h2.252v2.25H4.5zM7.875 12.374h2.25v2.25h-2.25zM11.252 12.374H13.5v2.25h-2.248z"/></g></svg><view id="icon_delete" viewBox="997 829 16 16"/><svg viewBox="0 0 16 16" enable-background="new 0 0 16 16" width="16" height="16" x="997" y="829"><path fill="#09f" d="M16 14.5L9.4 7.8l6.4-6.4L14.5 0 7.9 6.7 1.3 0 0 1.4 6.6 8 0 14.7 1.3 16l6.6-6.6 6.6 6.6z"/></svg><view id="icon_delete_disable" viewBox="1013 829 16 16"/><svg viewBox="0 0 16 16" enable-background="new 0 0 16 16" width="16" height="16" x="1013" y="829"><path fill="#ccc" d="M16 14.5L9.4 7.8l6.4-6.4L14.5 0 7.9 6.7 1.3 0 0 1.4 6.6 8 0 14.7 1.3 16l6.6-6.6 6.6 6.6z"/></svg><view id="icon_delete_hover" viewBox="1029 829 16 16"/><svg viewBox="0 0 16 16" enable-background="new 0 0 16 16" width="16" height="16" x="1029" y="829"><path fill="#444" d="M16 14.5L9.4 7.8l6.4-6.4L14.5 0 7.9 6.7 1.3 0 0 1.4 6.6 8 0 14.7 1.3 16l6.6-6.6 6.6 6.6z"/></svg><view id="icon_deny" viewBox="1045 829 16 16"/><svg viewBox="0 0 16 16" enable-background="new 0 0 16 16" width="16" height="16" x="1045" y="829"><path d="M13.714 13.714c-3.086 3.086-8.23 3.086-11.314 0S-.8 5.486 2.286 2.286s8.23-3.086 11.43 0 3.084 8.228-.002 11.428zM2.97 2.97C.23 5.715.23 10.286 2.97 13.03s7.315 2.743 10.058 0 2.743-7.314 0-10.057S5.714.23 2.97 2.97z" fill="#EF202A"/><g fill="#EF202A"><path d="M11.798 10.506L10.505 11.8 4.202 5.495l1.293-1.293zM10.506 4.202L11.8 5.495l-6.304 6.303-1.293-1.293z"/></g></svg><view id="icon_down_arrow" viewBox="1043 715 13 5"/><svg viewBox="0 0 13 5" enable-background="new 0 0 13 5" width="13" height="5" x="1043" y="715"><path d="M.287 1.464l5.56 3.293c.083.076.184.135.294.178.224.082.476.082.698 0 .11-.043.21-.102.295-.178l5.623-3.354c.356-.32.356-.84 0-1.16-.355-.32-.932-.32-1.287 0L6.456 3.1 1.574.303C1.22-.018.642-.018.287.304c-.355.32-.355.838 0 1.16z" fill="#0594FF"/></svg><view id="icon_down_arrow_topbar" viewBox="1100 701 14 8"/><svg viewBox="0 0 14 8" enable-background="new 0 0 14 8" width="14" height="8" x="1100" y="701"><path fill="#eee" d="M0 1.318L6.876 8 14 1.262 12.738 0 6.876 5.477 1.262.057z"/></svg><view id="icon_edit" viewBox="1093 829 16 16"/><svg viewBox="0 0 16 16" enable-background="new 0 0 16 16" width="16" height="16" x="1093" y="829"><g fill="#09f"><path d="M15.8 2.1S14.3.5 13.9.2c-.3-.3-.7 0-.7 0l-.8.8L15 3.6c.1-.1.4-.4.8-.7.1-.1.2-.3.2-.4 0-.3-.2-.4-.2-.4zM5.4 13.1L13.8 5l-2.7-2.7L3 10.6zM0 15.9c.1.1.4.1.4.1l3.8-1.7-2.3-2.4c-.4.7-1.5 2.9-1.8 3.6-.1.2-.1.4-.1.4z"/></g></svg><view id="icon_edit_disable" viewBox="667 874 16 16"/><svg viewBox="0 0 16 16" enable-background="new 0 0 16 16" width="16" height="16" x="667" y="874"><path d="M15.737 2.065L13.88.165c-.36-.37-.836 0-.836 0l-.905.927 2.72 2.787s.362-.28.877-.806c.515-.53 0-1.01 0-1.01zM2.85 10.6L5.388 13.2l8.426-8.155-2.768-2.834zM.037 15.32c-.312.88.504.653.504.653L4.44 14.17 1.9 11.572S.35 14.438.038 15.32z" fill="#ccc"/></svg><view id="icon_edit_hover" viewBox="683 874 16 16"/><svg viewBox="0 0 16 16" enable-background="new 0 0 16 16" width="16" height="16" x="683" y="874"><path d="M15.772 2.064l-1.856-1.9c-.36-.37-.837 0-.837 0l-.906.927 2.722 2.788s.36-.278.876-.805c.515-.53 0-1.01 0-1.01zM2.885 10.6L5.42 13.2l8.428-8.156-2.77-2.834zM.07 15.32c-.312.88.504.653.504.653L4.47 14.17l-2.536-2.598S.38 14.438.07 15.32z" fill="#444"/></svg><view id="icon_error" viewBox="1015 799 18 18"/><svg viewBox="0 0 18 18" enable-background="new 0 0 18 18" width="18" height="18" x="1015" y="799"><path d="M9 0v.002c2.485 0 4.736 1.008 6.363 2.634C16.99 4.263 17.997 6.513 17.997 9H18h-.003c0 2.486-1.008 4.737-2.634 6.363-1.628 1.63-3.878 2.635-6.362 2.635V18v-.002c-2.487 0-4.737-1.007-6.364-2.635C1.01 13.737 0 11.486 0 9c0-2.487 1.01-4.737 2.635-6.365C4.263 1.01 6.513 0 9 0zm0 1.216v.002-.002c-2.147 0-4.093.87-5.502 2.28C2.088 4.907 1.216 6.854 1.216 9h.002-.002c0 2.146.87 4.093 2.282 5.5 1.41 1.41 3.355 2.282 5.502 2.282v-.002h.002v.003c2.146 0 4.09-.872 5.5-2.28 1.41-1.41 2.28-3.357 2.28-5.503v-.002c0-2.146-.87-4.09-2.28-5.5C13.093 2.085 11.147 1.215 9 1.215zM8.1 12.797h1.8V14.4H8.1v-1.603zM8.245 3.6h1.51l-.16 7.827h-1.19L8.246 3.6z" fill="#D91E18"/></svg><view id="icon_exit_filters" viewBox="1003.5 847 8 8"/><svg viewBox="0 0 8 8" enable-background="new 0 0 8 8" width="8" height="8" x="1003.5" y="847"><path d="M7.298 8L8 7.298 4.702 4 8 .702 7.298 0 4 3.298.703 0 0 .703 3.3 4 0 7.298l.702.7L4 4.703 7.298 8z" fill="#979797"/></svg><view id="icon_exit_filters_disable" viewBox="731 874 16 16"/><svg viewBox="0 0 16 16" enable-background="new 0 0 16 16" width="16" height="16" x="731" y="874"><path d="M8 1.2C4.25 1.2 1.2 4.25 1.2 8s3.05 6.8 6.8 6.8 6.8-3.05 6.8-6.8S11.75 1.2 8 1.2zm4.552 10.51l-.79.79-3.71-3.71-3.71 3.71-.79-.79L7.262 8l-3.71-3.71.79-.79 3.71 3.71 3.71-3.71.79.79L8.842 8l3.71 3.71z" fill="#fff"/><path d="M8 0C3.582 0 0 3.582 0 8s3.582 8 8 8 8-3.582 8-8-3.582-8-8-8zm0 14.8c-3.75 0-6.8-3.05-6.8-6.8S4.25 1.2 8 1.2s6.8 3.05 6.8 6.8-3.05 6.8-6.8 6.8zM11.762 3.5l-3.71 3.71-3.71-3.71-.79.79L7.262 8l-3.71 3.71.79.79 3.71-3.71 3.71 3.71.79-.79L8.842 8l3.71-3.71z" fill="#ccc"/></svg><view id="icon_exit_filters_hover" viewBox="1019.5 847 8 8"/><svg viewBox="0 0 8 8" enable-background="new 0 0 8 8" width="8" height="8" x="1019.5" y="847"><path d="M7.298 8L8 7.298 4.702 4 8 .702 7.298 0 4 3.298.703 0 0 .703 3.3 4 0 7.298l.702.7L4 4.703 7.298 8z" fill="#09f"/></svg><view id="icon_expand_all" viewBox="763 874 16 16"/><svg viewBox="0 0 16 16" enable-background="new 0 0 16 16" width="16" height="16" x="763" y="874"><g fill="#09f"><path d="M6.2 8.6l-5.1 5.2V8.1H0V16h7.9v-1.1H2.4l5-5zM14.9 0H8.1v1.1h5.5L8.1 6.6l1.2 1.3 5.6-5.7v5.7H16V0z"/></g></svg><view id="icon_expand_all_disable" viewBox="851 829 18 18"/><svg viewBox="0 0 18 18" enable-background="new 0 0 18 18" width="18" height="18" x="851" y="829"><g fill="#ccc"><path d="M6.645 10.117L1.1 15.755v-5.63H-.025V18H7.85v-1.125H2.393L7.85 11.35zM16.877 0H10.1v1.125h5.453l-5.455 5.52 1.205 1.23 5.547-5.64v5.64h1.125V0z"/></g></svg><view id="icon_expand_all_hover" viewBox="795 874 16 16"/><svg viewBox="0 0 16 16" enable-background="new 0 0 16 16" width="16" height="16" x="795" y="874"><g fill="#444"><path d="M6.2 8.6l-5.1 5.2V8.1H0V16h7.9v-1.1H2.4l5-5zM14.9 0H8.1v1.1h5.5L8.1 6.6l1.2 1.3 5.6-5.7v5.7H16V0z"/></g></svg><view id="icon_filter" viewBox="811 874 16 16"/><svg viewBox="0 0 16 16" enable-background="new 0 0 16 16" width="16" height="16" x="811" y="874"><path d="M10 16H6V8.3L0 0h16l-6 8.3V16zm-2.7-1.3h1.4V7.8l4.8-6.5H2.6l4.6 6.5v6.9h.1z" fill="#09f"/></svg><view id="icon_filter_disable" viewBox="715 874 16 16"/><svg viewBox="0 0 16 16" enable-background="new 0 0 16 16" width="16" height="16" x="715" y="874"><path d="M10 16H6V8.3L0 0h16l-6 8.3V16zm-2.7-1.3h1.4V7.8l4.8-6.5H2.6l4.6 6.5v6.9h.1z" fill="#ccc"/></svg><view id="icon_filter_hover" viewBox="843 874 16 16"/><svg viewBox="0 0 16 16" enable-background="new 0 0 16 16" width="16" height="16" x="843" y="874"><path d="M10 16H6V8.3L0 0h16l-6 8.3V16zm-2.7-1.3h1.4V7.8l4.8-6.5H2.6l4.6 6.5v6.9h.1z" fill="#444"/></svg><view id="icon_filter_menu" viewBox="859 874 16 16"/><svg viewBox="0 0 16 16" enable-background="new 0 0 16 16" width="16" height="16" x="859" y="874"><g fill="#09f"><path d="M6.2 0h3.6v3.6H6.2zM6.2 6.2h3.6v3.6H6.2zM6.2 12.4h3.6V16H6.2z"/></g></svg><view id="icon_filter_menu_hover" viewBox="875 874 16 16"/><svg viewBox="0 0 16 16" enable-background="new 0 0 16 16" width="16" height="16" x="875" y="874"><g fill="#444"><path d="M6.2 0h3.6v3.6H6.2zM6.2 6.2h3.6v3.6H6.2zM6.2 12.4h3.6V16H6.2z"/></g></svg><view id="icon_flag_black" viewBox="869 829 16 16"/><svg viewBox="0 0 16 16" enable-background="new 0 0 16 16" width="16" height="16" x="869" y="829"><path fill-rule="evenodd" clip-rule="evenodd" fill="#828282" d="M10.133 4.267L14.4 0H1.6v16h2.133V8.533H14.4z"/></svg><view id="icon_flag_grey" viewBox="907 874 16 16"/><svg viewBox="0 0 16 16" enable-background="new 0 0 16 16" width="16" height="16" x="907" y="874"><path fill-rule="evenodd" clip-rule="evenodd" fill="#ccc" d="M10.133 4.267L14.4 0H1.6v16h2.133V8.533H14.4z"/></svg><view id="icon_flag_link" viewBox="923 874 16 16"/><svg viewBox="0 0 16 16" enable-background="new 0 0 16 16" width="16" height="16" x="923" y="874"><path fill-rule="evenodd" clip-rule="evenodd" fill="#36c" d="M10.133 4.267L14.4 0H1.6v16h2.133V8.533H14.4z"/></svg><view id="icon_global_search" viewBox="939 874 16 16"/><svg viewBox="0 0 16 16" enable-background="new 0 0 16 16" width="16" height="16" x="939" y="874"><path d="M14.414 15.275l-3.2-4.9c.7-.6 1.2-1.3 1.6-2.2.6-1.4.6-3 0-4.5-.6-1.4-1.7-2.6-3.2-3.2-1.4-.6-3-.6-4.5 0-1.4.7-2.5 1.8-3.1 3.2-1.2 3 .2 6.4 3.2 7.6.7.3 1.5.4 2.2.4.9 0 1.8-.2 2.5-.6l3.2 4.9 1.3-.7zm-8.6-5.4c-1.1-.4-1.9-1.2-2.4-2.3-.4-1.1-.4-2.2 0-3.3.7-1.7 2.3-2.7 4-2.7.5 0 1.1.1 1.6.3 1.1.4 1.9 1.3 2.3 2.3s.4 2.2 0 3.3c-.8 2.3-3.3 3.3-5.5 2.4z" fill="#eee"/></svg><view id="icon_grey_circle" viewBox="957 764 32 32"/><svg viewBox="0 0 32 32" enable-background="new 0 0 32 32" width="32" height="32" x="957" y="764"><circle cx="16" cy="16" r="16" fill="#ccc"/></svg><view id="icon_grey_line" viewBox="1061 697 7 3"/><svg viewBox="0 0 7 3" enable-background="new 0 0 7 3" width="7" height="3" x="1061" y="697"><path fill="#ccc" d="M0 1.938h4.984v1.03H0z"/></svg><view id="icon_grid_option" viewBox="971 874 16 16"/><svg viewBox="0 0 16 16" enable-background="new 0 0 16 16" width="16" height="16" x="971" y="874"><g fill="#999"><path d="M6.223 0h3.554v3.556H6.223zM6.223 6.223h3.554v3.555H6.223zM6.223 12.444h3.554V16H6.223z"/></g></svg><view id="icon_hamburger" viewBox="987 874 16 16"/><svg viewBox="0 0 16 16" enable-background="new 0 0 16 16" width="16" height="16" x="987" y="874"><g fill="#fff"><path d="M0 .85h16v3H0zM0 6.25h16v3H0zM0 11.65h16v3H0z"/></g></svg><view id="icon_hamburger_disabled" viewBox="1003 874 16 16"/><svg viewBox="1 -5 16 16" enable-background="new 1 -5 16 16" width="16" height="16" x="1003" y="874"><g fill="#ccc"><path d="M1-4.15h16v3H1zM1 1.25h16v3H1zM1 6.65h16v3H1z"/></g></svg><view id="icon_hamburger_hover" viewBox="1019 874 16 16"/><svg viewBox="1 -5 16 16" enable-background="new 1 -5 16 16" width="16" height="16" x="1019" y="874"><g fill="#444"><path d="M1-4.15h16v3H1zM1 1.25h16v3H1zM1 6.65h16v3H1z"/></g></svg><view id="icon_help" viewBox="1035 874 16 16"/><svg viewBox="0 0 16 16" enable-background="new 0 0 16 16" width="16" height="16" x="1035" y="874"><path d="M8 16c-4.4 0-8-3.6-8-8s3.6-8 8-8 8 3.6 8 8-3.6 8-8 8zM8 .9C4.1.9.9 4.1.9 8s3.2 7.1 7.1 7.1 7.1-3.2 7.1-7.1S11.9.9 8 .9z" fill="#444"/><g fill="#444"><path d="M10.7 3.9C10 3.3 9.1 3 8 3c-1 0-1.9.3-2.5.9-.6.5-.9 1-1 1.7l1.2.1c.2-.5.6-1.8 2.3-1.8.6 0 1.2.2 1.5.5.4.4.6.8.6 1.3 0 1-.8 1.6-1.4 2.1-.5.4-.9.9-1.1 1.2-.2.3-.3.8-.3 1.3v.1h1.2c0-.4.1-.8.2-1 .1-.3.4-.6.9-1 .8-.7 1.3-1.2 1.6-1.6s.3-.6.3-1.1-.2-1.2-.8-1.8zM7.3 11.7h1.3V13H7.3z"/></g></svg><view id="icon_help_disable" viewBox="1051 874 16 16"/><svg viewBox="0 0 16 16" enable-background="new 0 0 16 16" width="16" height="16" x="1051" y="874"><style type="text/css">.st0{fill:#ccc}</style><path class="st0" d="M8 16c-4.4 0-8-3.6-8-8s3.6-8 8-8 8 3.6 8 8-3.6 8-8 8zM8 .9C4.1.9.9 4.1.9 8s3.2 7.1 7.1 7.1 7.1-3.2 7.1-7.1S11.9.9 8 .9zM10.7 3.9C10 3.3 9.1 3 8 3c-1 0-1.9.3-2.5.9-.6.5-.9 1-1 1.7l1.2.1c.2-.5.6-1.8 2.3-1.8.6 0 1.2.2 1.5.5.4.4.6.8.6 1.3 0 1-.8 1.6-1.4 2.1-.5.4-.9.9-1.1 1.2-.2.3-.3.8-.3 1.3v.1h1.2c0-.4.1-.8.2-1 .1-.3.4-.6.9-1 .8-.7 1.3-1.2 1.6-1.6.3-.4.3-.6.3-1.1s-.2-1.2-.8-1.8zM7.3 11.7h1.3V13H7.3z"/></svg><view id="icon_help_form" viewBox="939 847 12 12"/><svg viewBox="2 2 12 12" enable-background="new 2 2 12 12" width="12" height="12" x="939" y="847"><path d="M8.504 9.518h-1.08l-.004-.28c0-.348.058-.633.174-.856.115-.222.347-.474.694-.753.347-.28.554-.463.622-.55.105-.136.157-.287.157-.452 0-.23-.092-.425-.277-.588-.186-.163-.434-.245-.747-.245-.302 0-.554.085-.757.256-.204.17-.343.43-.42.78l-1.092-.135c.03-.5.246-.924.645-1.273.398-.35.922-.523 1.57-.523.684 0 1.226.175 1.63.528.403.354.605.764.605 1.234 0 .26-.073.505-.222.737-.147.23-.463.546-.95.945-.25.207-.406.374-.467.5-.06.124-.088.35-.082.673zm-1.08 1.584V9.924h1.19V11.1h-1.19v.002zM8 14c-3.308 0-6-2.692-6-6s2.692-6 6-6 6 2.692 6 6-2.692 6-6 6zM8 2.706C5.08 2.706 2.706 5.08 2.706 8S5.08 13.294 8 13.294 13.294 10.92 13.294 8 10.92 2.706 8 2.706z" fill="#666"/></svg><view id="icon_help_form_hover" viewBox="951 847 12 12"/><svg viewBox="2 2 12 12" enable-background="new 2 2 12 12" width="12" height="12" x="951" y="847"><path d="M8.504 9.518h-1.08l-.004-.28c0-.348.058-.633.174-.856.115-.222.347-.474.694-.753.347-.28.554-.463.622-.55.105-.136.157-.287.157-.452 0-.23-.092-.425-.277-.588-.186-.163-.434-.245-.747-.245-.302 0-.554.085-.757.256-.204.17-.343.43-.42.78l-1.092-.135c.03-.5.246-.924.645-1.273.398-.35.922-.523 1.57-.523.684 0 1.226.175 1.63.528.403.354.605.764.605 1.234 0 .26-.073.505-.222.737-.147.23-.463.546-.95.945-.25.207-.406.374-.467.5-.06.124-.088.35-.082.673zm-1.08 1.584V9.924h1.19V11.1h-1.19v.002zM8 14c-3.308 0-6-2.692-6-6s2.692-6 6-6 6 2.692 6 6-2.692 6-6 6zM8 2.706C5.08 2.706 2.706 5.08 2.706 8S5.08 13.294 8 13.294 13.294 10.92 13.294 8 10.92 2.706 8 2.706z" fill="#09f"/></svg><view id="icon_help_hover" viewBox="1067 874 16 16"/><svg viewBox="0 0 16 16" enable-background="new 0 0 16 16" width="16" height="16" x="1067" y="874"><path d="M8 16c-4.4 0-8-3.6-8-8s3.6-8 8-8 8 3.6 8 8-3.6 8-8 8zM8 .9C4.1.9.9 4.1.9 8s3.2 7.1 7.1 7.1 7.1-3.2 7.1-7.1S11.9.9 8 .9z" fill="#09f"/><g fill="#09f"><path d="M10.7 3.9C10 3.3 9.1 3 8 3c-1 0-1.9.3-2.5.9-.6.5-.9 1-1 1.7l1.2.1c.2-.5.6-1.8 2.3-1.8.6 0 1.2.2 1.5.5.4.4.6.8.6 1.3 0 1-.8 1.6-1.4 2.1-.5.4-.9.9-1.1 1.2-.2.3-.3.8-.3 1.3v.1h1.2c0-.4.1-.8.2-1 .1-.3.4-.6.9-1 .8-.7 1.3-1.2 1.6-1.6s.3-.6.3-1.1-.2-1.2-.8-1.8zM7.3 11.7h1.3V13H7.3z"/></g></svg><view id="icon_help_utility" viewBox="1083 874 16 16"/><svg viewBox="0 0 16 16" enable-background="new 0 0 16 16" width="16" height="16" x="1083" y="874"><g fill="#eee"><path d="M12.072 1.3c-1-.9-2.4-1.3-4.2-1.3-1.6 0-2.9.4-3.9 1.3-.9.8-1.4 1.6-1.6 2.6l1.9.2c.3-.8 1.9-2.8 3.7-2.8 1 0 1.8.3 2.4.8.6.6.9 1.2.9 2 0 1.5-1.2 2.5-2.2 3.3-.9.7-1.5 1.4-1.8 1.9-.3.5-.4 1.2-.4 2.1v.2h1.9c0-.7.1-1.2.3-1.6.2-.4.7-.9 1.4-1.6 1.3-1.1 2.1-1.9 2.5-2.5s.5-1.1.5-1.7c.1-1-.4-2-1.4-2.9zM6.872 13.8h2.2V16h-2.2z"/></g></svg><view id="icon_hover_circle" viewBox="1053 764 32 32"/><svg viewBox="0 0 32 32" enable-background="new 0 0 32 32" width="32" height="32" x="1053" y="764"><path d="M16 1.778c7.842 0 14.222 6.38 14.222 14.222S23.842 30.222 16 30.222 1.778 23.842 1.778 16 8.158 1.778 16 1.778M16 0C7.163 0 0 7.163 0 16s7.163 16 16 16 16-7.163 16-16S24.837 0 16 0z" fill="#05A4FF"/></svg><view id="icon_juniper_logo_white" viewBox="667 701 232 63"/><svg viewBox="0 0 232 63" enable-background="new 0 0 232 63" width="232" height="63" x="667" y="701"><g fill="#fff"><path d="M113.796 50.096h1.418l7.34 10.058V50.096h1.266v12.212h-1.19l-7.586-10.362v10.362h-1.248zM126.957 50.096h8.115v1.25h-6.813v4.033h6.64v1.202h-6.64v4.53h6.887v1.196h-8.19zM141.653 51.346h-4.617v-1.25h10.534v1.25h-4.615v10.962h-1.302zM149.164 50.096h1.342l3.223 10.09 3.296-10.09h1.126l3.282 10.09 3.245-10.09h1.27L161.998 62.4h-1.125l-3.313-10.166-3.31 10.165h-1.14zM167.107 56.193c0-4.344 2.24-6.293 6.17-6.293 3.955 0 6.208 1.95 6.208 6.293 0 4.375-2.253 6.307-6.21 6.307-3.927 0-6.168-1.932-6.168-6.307m11.075.016c0-3.282-1.562-5.066-4.907-5.066-3.32 0-4.843 1.784-4.843 5.065 0 3.3 1.522 5.093 4.843 5.093 3.345 0 4.907-1.794 4.907-5.094"/><path d="M187.096 57.328h-3.682v4.98h-1.267V50.095h5.315c2.834 0 4.122 1.14 4.122 3.555 0 2.116-.993 3.35-3.145 3.624l2.968 5.034h-1.398l-2.914-4.98zm.37-1.195c1.744 0 2.814-.5 2.814-2.447 0-1.88-1.03-2.377-2.853-2.377h-4.013v4.823h4.052zM198.118 55.84l-2.476 2.664v3.804h-1.265V50.096h1.265v6.73l6.225-6.73h1.497l-4.388 4.8 5.003 7.412h-1.486zM205.07 61.06l.66-.972c1.474.923 2.917 1.222 4.393 1.222 2.525 0 3.65-.706 3.65-2.383 0-1.716-1.444-1.967-3.65-2.375-2.66-.457-4.45-.904-4.45-3.362 0-2.363 1.53-3.29 4.45-3.29 1.917 0 3.297.43 4.28 1.083l-.695 1.063c-.876-.58-2.208-.95-3.585-.95-2.214 0-3.158.6-3.158 2.06 0 1.547 1.29 1.842 3.467 2.24 2.68.483 4.633.87 4.633 3.48 0 2.428-1.553 3.588-4.922 3.588-1.835 0-3.522-.37-5.073-1.404M227.895-.344c-17.27 0-17.982 7.69-17.982 18.54v26.63h4.072v-26.63c0-8.185-.338-14.743 13.91-14.743 1.52 0 2.88.09 4.105.224V-.185c-1.246-.09-2.6-.16-4.105-.16M26.552 27.51V.543h4.143v27.03c0 7.785-.07 14.34 14.266 14.34 14.247 0 13.912-6.555 13.912-14.74V.543h4.07v26.63c0 10.854-.738 18.546-17.98 18.546-17.36 0-18.41-7.692-18.41-18.207M106.23 17.857v26.97h-4.16v-27.03c0-7.786.088-14.344-14.247-14.344-14.25 0-13.908 6.558-13.908 14.742v26.63H69.84v-26.63c0-10.85.718-18.54 17.983-18.54 17.36 0 18.406 7.69 18.406 18.202"/><path d="M113.796.637h3.976v44.19h-3.976zM125.233.637h20.81c10.335 0 15.006 5.086 15.006 14.16 0 9.124-4.604 14.673-15.043 14.673h-16.772v15.356h-4.002V.636zM146.11 25.48c7.184 0 10.78-3.47 10.78-10.515 0-7.04-3.862-10.375-10.953-10.375h-16.702v20.89h16.876zM165.702 22.57c0-13.05 3.732-23.07 20.51-23.07 17.356 0 17.91 11.566 17.825 23.78H169.68c.092 10.762 2.774 18.79 16.868 18.79 7.49 0 10.895-2.02 14.557-4.688l2.28 2.972c-4.07 3.005-8.87 5.363-16.838 5.363-17.603 0-20.845-10.115-20.845-23.147m4.07-2.997h30.284c-.397-8.824-.986-16.36-13.935-16.36-12.45 0-15.87 6.738-16.347 16.36M1.54 54.405c17.27 0 18.008-7.693 18.008-18.545V.544H15.48V35.86c0 8.182.308 14.745-13.94 14.745-.52 0-1.043-.016-1.54-.04v3.812c.503.016 1.023.028 1.54.028M222.88 45.016c-1.544 0-2.796-1.272-2.796-2.806 0-1.535 1.252-2.78 2.795-2.78 1.546 0 2.82 1.245 2.82 2.78 0 1.534-1.274 2.806-2.82 2.806m0-5.233c-1.352 0-2.442 1.086-2.442 2.427 0 1.337 1.09 2.43 2.44 2.43 1.346 0 2.45-1.093 2.45-2.43.002-1.34-1.103-2.427-2.45-2.427"/><path d="M223.065 42.587h-.903v1.23h-.432v-3.213h1.44c.81 0 1.137.344 1.137.972 0 .53-.225.875-.79.99l.733 1.25h-.467l-.718-1.23zm.1-.414c.442 0 .698-.11.698-.58 0-.466-.245-.567-.712-.567h-.988v1.147h1.003z"/></g></svg><view id="icon_left" viewBox="727 764 30 110"/><svg viewBox="0 0 30 110" enable-background="new 0 0 30 110" width="30" height="110" x="727" y="764"><style type="text/css">.st0{fill:#ccc}.st1{fill:none}</style><title>icon_left_hover</title><image width="16" height="120" xlink:href="4C7B7328AB5806F9.png" transform="matrix(.99 0 0 .99 14.52 -4.4)" overflow="visible" opacity=".2" enable-background="new"/><path class="st0" d="M19.6 1.6h1v106h-1z"/><path class="st1" d="M-.4-.4h20v110h-20z"/><path class="st0" d="M10.2 48.1l-7.4 9 7.4 9 1.6-1.6-6.1-7.4 6.1-7.4z"/></svg><view id="icon_left_hover" viewBox="757 764 30 110"/><svg viewBox="0 0 30 110" enable-background="new 0 0 30 110" width="30" height="110" x="757" y="764"><style type="text/css">.st0{fill:#ccc}.st1{fill:none}.st2{fill:#444}</style><title>icon_left_hover</title><image width="16" height="120" xlink:href="4C7B7328AB5806F9.png" transform="matrix(.99 0 0 .99 14.52 -4.4)" overflow="visible" opacity=".2" enable-background="new"/><path class="st0" d="M19.6 1.6h1v106h-1z"/><path class="st1" d="M-.4-.4h20v110h-20z"/><path class="st2" d="M10.2 48.1l-7.4 9 7.4 9 1.6-1.6-6.1-7.4 6.1-7.4z"/></svg><view id="icon_login_background" viewBox="0 0 3 1280"/><svg viewBox="0 0 3 1280" enable-background="new 0 0 3 1280" width="3" height="1280"><linearGradient id="dma" gradientUnits="userSpaceOnUse" x1="1.5" y1="1280" x2="1.5"><stop offset="0" stop-color="#fff"/><stop offset="1" stop-color="#6084A0"/></linearGradient><path fill="url(#dma)" d="M0 0h3v1280H0z"/></svg><view id="icon_login_burst_white" viewBox="667 0 447 697"/><svg viewBox="0 0 447 697" enable-background="new 0 0 447 697" width="447" height="697" x="667"><g fill="#fff"><path d="M446.5 54.55C428.372 36.415 410.245 18.28 392.115.134H9.8C-11.254 61.006.253 129.837 41.7 181.045c41.756 51.774 106.27 63.985 167.14 80.53 79.27 21.028 158.556 42.487 237.66 63.634V54.55zM446.5 95.37c-79.103 21.3-158.39 42.414-237.66 63.8-60.868 16.396-125.383 28.682-167.14 80.382-49.1 60.814-56.182 146.113-16.89 213.76 39.227 67.737 116.352 104.433 193.616 92.382 65.747-10.43 108.5-60.114 153.142-104.58 24.998-24.977 49.966-49.967 74.93-74.957V95.37zM446.5-.5h-59.068c-12.884 48.02-25.77 96.026-38.633 143.984C326.926 225.622 305 307.76 282.94 389.747c-16.285 61.027-37.922 123.01-13.955 185.128 28.186 72.887 98.49 121.65 176.75 121.625.256 0 .51-.01.765-.01V-.5z" opacity=".33"/><path d="M446.5-.5H274.375c.06.21.113.422.172.633 2.788 10.268 5.666 20.51 8.393 30.716 22.062 82.136 43.986 164.074 65.86 246.25 32.295 120.49 64.725 241.135 96.935 361.86l.765-2.867V-.5z" opacity=".6"/><path d="M446.5 52.994c-35.623 35.643-71.243 71.27-106.913 106.824-88.42 88.26-176.738 176.635-264.955 264.736 120.513-32.218 241.152-64.584 361.74-97.05 3.373-.902 6.752-1.81 10.128-2.713V52.995zM446.5 95.788c-3.376-.908-6.755-1.812-10.13-2.72C319.995 61.817 203.574 30.695 87.26-.5h-9.242c87.092 87.017 174.28 174.29 261.57 261.23 35.67 35.65 71.292 71.326 106.913 107V95.788z" opacity=".33"/></g></svg><view id="icon_logo" viewBox="899 725 94 30"/><svg viewBox="0 0 94 30" enable-background="new 0 0 94 30" width="94" height="30" x="899" y="725"><path d="M1.307 15.9c-1.52 1.877-1.74 4.508-.523 6.596 1.215 2.09 3.602 3.222 5.994 2.85 2.034-.32 3.357-1.854 4.74-3.227 1.862-1.853 3.72-3.712 5.58-5.565 2.74-2.72 5.47-5.447 8.202-8.166-3.735.995-7.46 1.99-11.2 2.99-2.535.684-5.076 1.356-7.62 2.04-1.883.506-3.88.885-5.173 2.48zM8.342 26.246c.872 2.248 3.05 3.754 5.47 3.754 2.42-.004 4.598-1.506 5.47-3.754.743-1.916.074-3.828-.43-5.71-.675-2.53-1.36-5.065-2.037-7.6-1.005-3.716-2.003-7.44-3.002-11.16-.997 3.722-2 7.444-3 11.16-.678 2.534-1.356 5.07-2.038 7.6-.506 1.882-1.176 3.794-.433 5.71zM20.848 25.346c2.392.372 4.79-.756 5.994-2.85 1.21-2.092.995-4.72-.52-6.596-1.294-1.596-3.29-1.975-5.178-2.48-2.536-.685-5.08-1.357-7.62-2.042-3.732-.998-7.467-1.994-11.198-2.99 2.73 2.72 5.465 5.447 8.2 8.166 1.865 1.854 3.72 3.712 5.58 5.564 1.383 1.374 2.708 2.907 4.742 3.228zM26.32 14.096c1.518-1.873 1.735-4.508.522-6.594-1.215-2.094-3.602-3.227-5.994-2.85-2.034.322-3.36 1.856-4.742 3.227-1.86 1.854-3.715 3.71-5.58 5.56-2.735 2.724-5.47 5.448-8.2 8.17 3.73-.997 7.466-1.995 11.2-2.997 2.537-.676 5.082-1.36 7.618-2.033 1.89-.512 3.884-.887 5.177-2.484zM1.307 14.096c-1.52-1.873-1.74-4.508-.523-6.594C2 5.408 4.386 4.275 6.778 4.652c2.034.322 3.357 1.856 4.742 3.227 1.86 1.854 3.717 3.71 5.58 5.56 2.737 2.724 5.468 5.448 8.2 8.17-3.733-.997-7.46-1.995-11.2-2.997-2.535-.676-5.076-1.36-7.62-2.033-1.883-.512-3.88-.887-5.173-2.484z" fill="#fff" opacity=".33"/><path d="M19.282 3.752C18.41 1.5 16.232-.002 13.812 0c-2.42.002-4.598 1.5-5.47 3.752-.743 1.91-.073 3.828.433 5.707.682 2.534 1.36 5.063 2.038 7.6 1 3.718 2.003 7.44 3 11.165 1-3.725 1.997-7.447 3.002-11.166.676-2.536 1.362-5.066 2.036-7.6.507-1.88 1.175-3.798.432-5.708z" fill="#fff" opacity=".6"/><g fill="#fff"><path d="M63.23 21.985h.37l1.91 2.625v-2.625h.33v3.188h-.31l-1.974-2.705v2.705h-.326zM66.658 21.985h2.112v.327h-1.773v1.05h1.728v.316h-1.728v1.183h1.793v.313h-2.132zM70.482 22.312h-1.2v-.327h2.74v.327h-1.2v2.86h-.34zM72.437 21.985h.35l.84 2.634.857-2.635h.292l.855 2.634.845-2.635h.33l-1.027 3.21h-.292l-.863-2.652-.862 2.653h-.295zM77.108 23.576c0-1.134.584-1.642 1.605-1.642 1.03 0 1.617.508 1.617 1.642 0 1.143-.586 1.646-1.617 1.646-1.02 0-1.605-.503-1.605-1.646m2.883.005c0-.855-.407-1.32-1.277-1.32-.864 0-1.26.465-1.26 1.32 0 .86.396 1.33 1.26 1.33.87 0 1.278-.47 1.278-1.33"/><path d="M82.31 23.873h-.958v1.3h-.33v-3.188h1.384c.737 0 1.072.297 1.072.927 0 .553-.26.875-.82.946l.775 1.314h-.365l-.757-1.3zm.097-.31c.455 0 .733-.132.733-.64 0-.49-.268-.62-.743-.62h-1.044v1.26h1.054zM85.18 23.484l-.645.696v.993h-.33v-3.188h.33v1.757l1.62-1.757h.39l-1.142 1.253 1.303 1.935h-.388zM86.99 24.847l.17-.253c.385.24.76.318 1.145.318.656 0 .95-.184.95-.62 0-.45-.376-.515-.95-.62-.694-.12-1.158-.237-1.158-.88 0-.616.398-.857 1.158-.857.498 0 .858.112 1.113.282l-.18.276c-.23-.15-.574-.247-.933-.247-.576 0-.823.157-.823.537 0 .404.337.48.903.585.698.126 1.205.227 1.205.908 0 .635-.404.937-1.282.937-.475 0-.914-.096-1.318-.366M92.93 8.818c-4.495 0-4.68 2.007-4.68 4.84v6.95h1.06v-6.95c0-2.137-.087-3.848 3.62-3.848.396 0 .75.023 1.07.058V8.86c-.325-.024-.678-.042-1.07-.042M40.523 16.09V9.05H41.6v7.056c0 2.032-.018 3.743 3.713 3.743 3.708 0 3.622-1.712 3.622-3.85V9.05h1.058V16c0 2.834-.192 4.842-4.68 4.842-4.518 0-4.79-2.008-4.79-4.753M61.26 13.57v7.038h-1.08v-7.055c0-2.032.022-3.743-3.71-3.743-3.71 0-3.62 1.71-3.62 3.848v6.95h-1.06v-6.95c0-2.833.186-4.84 4.68-4.84 4.52 0 4.79 2.007 4.79 4.75"/><path d="M63.23 9.075h1.037v11.533H63.23zM66.21 9.075h5.415c2.69 0 3.906 1.327 3.906 3.695 0 2.382-1.196 3.83-3.914 3.83H67.25v4.008h-1.04V9.075zm5.433 6.485c1.87 0 2.806-.905 2.806-2.744 0-1.84-1.006-2.71-2.852-2.71H67.25v5.454h4.393zM76.742 14.8c0-3.405.972-6.023 5.34-6.023 4.517 0 4.66 3.02 4.638 6.208h-8.942c.023 2.81.72 4.904 4.39 4.904 1.95 0 2.835-.528 3.79-1.225l.593.776c-1.06.784-2.307 1.4-4.383 1.4-4.58.002-5.425-2.638-5.425-6.04m1.06-.782h7.882c-.102-2.304-.255-4.27-3.625-4.27-3.243 0-4.135 1.758-4.258 4.27M34.01 23.11c4.496 0 4.688-2.01 4.688-4.84V9.05H37.64v9.22c0 2.137.08 3.848-3.63 3.848-.134 0-.27-.003-.4-.01v.995c.13.003.267.007.4.007"/></g></svg><view id="icon_logoSD" viewBox="899 701 144 24"/><svg viewBox="0 0 144 24" enable-background="new 0 0 144 24" width="144" height="24" x="899" y="701"><g fill="#fff"><path d="M.002 22.304l.575-.862c1.28.805 2.53 1.078 3.81 1.078 2.2 0 3.18-.62 3.18-2.085 0-1.51-1.267-1.726-3.18-2.07-2.3-.404-3.853-.792-3.853-2.95 0-2.055 1.323-2.86 3.854-2.86 1.668 0 2.86.374 3.71.948l-.604.92c-.762-.503-1.898-.833-3.106-.833-1.913 0-2.732.532-2.732 1.797 0 1.352 1.107 1.61 3.005 1.956 2.33.418 4.013.762 4.013 3.05 0 2.112-1.352 3.133-4.256 3.133-1.61 0-3.063-.33-4.415-1.222zM9.55 12.556h7.047v1.078h-5.91v3.523h5.766v1.064h-5.766v3.954h5.968v1.035H9.55V12.555zM17.593 18.048c0-3.724 1.927-5.493 5.306-5.493 1.51 0 2.788.446 3.723 1.337l-.805.805c-.762-.69-1.77-1.063-2.933-1.063-2.746 0-4.156 1.48-4.156 4.428 0 2.905 1.322 4.415 4.17 4.415 1.595 0 2.37-.504 3.004-1.093l.79.762c-.732.72-1.782 1.395-3.853 1.395-3.58 0-5.247-1.883-5.247-5.492zM27.84 19.37v-6.814h1.137v6.686c0 1.81.575 3.09 3.264 3.09 2.72 0 3.337-1.25 3.337-3.09v-6.686h1.093v6.815c0 2.115-.66 4.013-4.43 4.013-3.78 0-4.4-1.912-4.4-4.012zM42.163 18.868h-3.178v4.342h-1.107V12.556h4.6c2.474 0 3.595 1.006 3.595 3.12 0 1.84-.877 2.905-2.732 3.15l2.575 4.384h-1.208l-2.544-4.342zm.33-1.035c1.51 0 2.445-.46 2.445-2.114s-.906-2.115-2.487-2.115h-3.464v4.228h3.508zM47.454 12.556h1.107V23.21h-1.106V12.556zM53.57 13.634h-3.997v-1.078h9.13v1.078h-3.996v9.576H53.57v-9.576zM63.646 19.07l-4.285-6.515H60.6l3.623 5.493 3.653-5.493h1.165l-4.27 6.5v4.155h-1.122v-4.14zM73.94 12.54h3.48c3.997 0 5.464 1.21 5.464 5.32 0 4.027-1.64 5.335-5.65 5.335H73.94V12.54zm3.337 9.62c3.365 0 4.472-1.136 4.472-4.3 0-3.22-.936-4.255-4.315-4.255h-2.358v8.555h2.2zM84.367 12.54h1.107v10.656h-1.107V12.54zM91.513 18.853h-3.178v4.342h-1.107V12.54h4.6c2.474 0 3.595 1.007 3.595 3.12 0 1.842-.877 2.906-2.732 3.15l2.575 4.385h-1.208l-2.544-4.342zm.33-1.035c1.51 0 2.445-.46 2.445-2.114s-.906-2.114-2.487-2.114h-3.464v4.228h3.508zM96.69 12.54h7.046v1.08h-5.91v3.522h5.766v1.064h-5.766v3.953h5.968v1.034H96.69V12.54zM104.973 18.033c0-3.724 1.927-5.493 5.306-5.493 1.51 0 2.788.446 3.723 1.337l-.805.805c-.762-.69-1.77-1.063-2.933-1.063-2.746 0-4.156 1.48-4.156 4.427 0 2.905 1.322 4.415 4.17 4.415 1.595 0 2.37-.504 3.004-1.093l.79.76c-.732.72-1.782 1.396-3.853 1.396-3.58 0-5.247-1.884-5.247-5.493zM118.805 13.62h-3.997v-1.08h9.13v1.08h-3.996v9.575h-1.136V13.62zM123.695 18.033c0-3.796 1.94-5.493 5.35-5.493 3.42 0 5.377 1.696 5.377 5.493 0 3.81-1.956 5.507-5.378 5.507-3.408 0-5.35-1.697-5.35-5.507zm9.59.014c0-2.876-1.337-4.428-4.242-4.428-2.89 0-4.213 1.55-4.213 4.427 0 2.89 1.323 4.443 4.213 4.443 2.905 0 4.242-1.552 4.242-4.443zM140.087 18.853h-3.178v4.342H135.8V12.54h4.6c2.474 0 3.595 1.007 3.595 3.12 0 1.842-.877 2.906-2.732 3.15l2.574 4.385h-1.21l-2.543-4.342zm.33-1.035c1.51 0 2.444-.46 2.444-2.114s-.905-2.114-2.486-2.114h-3.465v4.228h3.507z"/></g><g fill="#fff"><path d="M35.28 7.01l.384-.58c.86.543 1.7.725 2.562.725 1.477 0 2.134-.414 2.134-1.4 0-1.016-.852-1.16-2.134-1.392-1.547-.27-2.59-.532-2.59-1.982 0-1.38.888-1.92 2.59-1.92 1.12 0 1.92.25 2.492.64l-.406.616c-.513-.337-1.275-.56-2.086-.56-1.287 0-1.836.36-1.836 1.207 0 .91.743 1.083 2.018 1.316 1.565.278 2.694.51 2.694 2.046 0 1.42-.907 2.105-2.858 2.105-1.082 0-2.056-.22-2.965-.82"/><path d="M42.827.46h3.14c1.662 0 2.415.655 2.415 2.125 0 1.478-.745 2.28-2.425 2.28H43.57V7.62h-.743V.458zm3.15 3.71c1.06 0 1.652-.415 1.652-1.555s-.57-1.45-1.682-1.45H43.57V4.17h2.406zM51.416.46h.762l2.872 7.207h-.775l-.656-1.653h-3.672L49.3 7.668h-.842l2.958-7.21zm1.93 4.86l-1.565-3.943-1.573 3.944h3.14zM55.89 4.15c0-2.503 1.296-3.69 3.566-3.69 1.013 0 1.873.3 2.5.898l-.538.54c-.513-.464-1.19-.715-1.972-.715-1.845 0-2.79.995-2.79 2.976 0 1.95.887 2.965 2.8 2.965 1.074 0 1.595-.338 2.02-.734l.53.513c-.493.483-1.198.936-2.59.936-2.403 0-3.526-1.265-3.526-3.69"/><path d="M63.536.46h4.733v.725H64.3v2.367h3.87v.714H64.3v2.657h4.008v.695h-4.772zM21.77 8.04c2.443 0 3.425-1.275 3.425-3.798 0-2.51-.983-3.783-3.424-3.783-2.442 0-3.397 1.273-3.397 3.782 0 2.523.955 3.797 3.398 3.797m0-.625c-1.964 0-2.72-1.076-2.72-3.16s.756-3.16 2.72-3.16c1.978 0 2.748 1.076 2.748 3.16s-.77 3.16-2.747 3.16m6.73.624c1.86 0 2.8-.492 2.8-2.138 0-1.447-.968-1.726-2.707-2.097-1.394-.306-2.004-.518-2.004-1.46 0-.77.45-1.26 1.936-1.26.916 0 1.646.225 2.204.543l.32-.557C30.41.7 29.59.46 28.512.46c-1.898 0-2.59.717-2.59 1.87 0 1.448.957 1.74 2.603 2.098 1.527.332 2.11.518 2.11 1.487 0 1.208-.69 1.513-2.11 1.513-.743 0-1.66-.133-2.548-.704l-.358.518c.982.65 2.018.797 2.88.797M.254 9.46C3.082 9.46 3.2 8.197 3.2 6.42V.62h-.663v5.8c0 1.34.053 2.415-2.284 2.415h-.25v.625h.25zm7.088-1.42c2.814 0 2.934-1.262 2.934-3.04V.62h-.664V5c0 1.34.053 2.415-2.27 2.415-2.336 0-2.323-1.076-2.323-2.35V.62H4.34V5.05c0 1.726.173 2.987 3 2.987m7.01-7.58c-2.815 0-2.935 1.26-2.935 3.04v4.38h.664V3.5c0-1.342-.052-2.417 2.27-2.417 2.337 0 2.324 1.075 2.324 2.35V7.88h.677V3.446c0-1.726-.172-2.987-3-2.987"/></g></svg><view id="icon_maintain" viewBox="1083 725 30 30"/><svg width="30" height="30" viewBox="0 0 30 30" x="1083" y="725"><path d="M240.553 110.978l-9.336-8.247-1.12 1.262-9.218-8.142.003-.006h-.01l-.003-.002-.646-.132-.646-.132.207.63.213.628.006-.004 9.217 8.14-1.118 1.256 9.336 8.245c.967.86 2.453.77 3.314-.197.863-.966.775-2.445-.2-3.298z" fill="none" stroke="#fff" stroke-width=".954" stroke-linecap="round" stroke-linejoin="round" stroke-miterlimit="10"/><g fill="none" stroke="#fff" stroke-width=".954" stroke-miterlimit="10"><path d="M243.113 94.697l-4.63 5.19c-.524.59-1.43.642-2.024.118l-1.708-1.512c-.59-.522-.645-1.425-.12-2.014l4.626-5.19c-2.137-.605-4.53.002-6.104 1.768-1.52 1.71-1.875 4.053-1.113 6.048-.124.083-.237.183-.342.3l-2.98 3.34 1.403 1.243 1.122-1.26 2.814 2.484 1.857-2.088c.107-.115.19-.24.258-.373 2.087.516 4.384-.108 5.903-1.818 1.575-1.763 1.9-4.2 1.04-6.238zM228.125 106.226l1.12-1.256-1.404-1.24-6.136 6.88c-.64.718-.573 1.825.147 2.466l1.593 1.405c.723.64 1.836.574 2.482-.146l5.013-5.623-2.813-2.484z"/></g><path d="M240.553 110.978l-9.336-8.247-1.12 1.262-9.218-8.142.003-.006h-.01l-.003-.002-.646-.132-.646-.132.207.63.213.628.006-.004 9.217 8.14-1.118 1.256 9.336 8.245c.967.86 2.453.77 3.314-.197.863-.966.775-2.445-.2-3.298z" fill="none" stroke="#fff" stroke-width=".954" stroke-linecap="round" stroke-linejoin="round" stroke-miterlimit="10"/><g fill="none" stroke="#fff" stroke-width=".954" stroke-miterlimit="10"><path d="M243.113 94.697l-4.63 5.19c-.524.59-1.43.642-2.024.118l-1.708-1.512c-.59-.522-.645-1.425-.12-2.014l4.626-5.19c-2.137-.605-4.53.002-6.104 1.768-1.52 1.71-1.875 4.053-1.113 6.048-.124.083-.237.183-.342.3l-2.98 3.34 1.403 1.243 1.122-1.26 2.814 2.484 1.857-2.088c.107-.115.19-.24.258-.373 2.087.516 4.384-.108 5.903-1.818 1.575-1.763 1.9-4.2 1.04-6.238zM228.125 106.226l1.12-1.256-1.404-1.24-6.136 6.88c-.64.718-.573 1.825.147 2.466l1.593 1.405c.723.64 1.836.574 2.482-.146l5.013-5.623-2.813-2.484z"/></g><path d="M311.383 113.493c0 .574-.43 1.038-.96 1.038h-22.08c-.532 0-.96-.463-.96-1.037V93.97c0-.575.428-1.04.96-1.04h22.08c.53 0 .96.465.96 1.04v19.523z" fill="none" stroke="#fff" stroke-width="1.2" stroke-miterlimit="10"/><path d="M289.408 105.693c-.566 0-.566.676 0 .676h3.67l2.014 4.055c.203.407.785.334.818-.103l.914-9.354s2.195 7.2 2.972 7.2h2.335c.196 0 .403-.147.423-.3l.69-4.266s3.146 5.41 3.702 5.41h2.613c.566 0 .566-.677 0-.677h-2.34l-3.89-6.466c-.087-.455-.78-.44-.84.016l-.74 5.605h-1.6l-3.327-8.99c-.065-.462-.81-.447-.845.017l-.796 10.246-1.418-2.857c-.046-.09-.273-.213-.395-.213h-3.96z" fill="#fff"/><path d="M311.383 113.493c0 .574-.43 1.038-.96 1.038h-22.08c-.532 0-.96-.463-.96-1.037V93.97c0-.575.428-1.04.96-1.04h22.08c.53 0 .96.465.96 1.04v19.523z" fill="none" stroke="#fff" stroke-width="1.2" stroke-miterlimit="10"/><path d="M289.408 105.693c-.566 0-.566.676 0 .676h3.67l2.014 4.055c.203.407.785.334.818-.103l.914-9.354s2.195 7.2 2.972 7.2h2.335c.196 0 .403-.147.423-.3l.69-4.266s3.146 5.41 3.702 5.41h2.613c.566 0 .566-.677 0-.677h-2.34l-3.89-6.466c-.087-.455-.78-.44-.84.016l-.74 5.605h-1.6l-3.327-8.99c-.065-.462-.81-.447-.845.017l-.796 10.246-1.418-2.857c-.046-.09-.273-.213-.395-.213h-3.96zM19.887 13.5c.11.204.246.39.393.556l-.705 1.907.8.496 1.228-1.532c.234.082.47.128.725.144l.787 1.826.89-.223-.198-1.905c.258-.127.486-.292.686-.486l1.7.71.458-.81L25.27 13c.09-.297.137-.614.13-.932l1.6-.697-.24-.922-1.746.142c-.152-.285-.348-.537-.566-.757l.627-1.688-.8-.498-1.142 1.427c-.27-.074-.55-.107-.838-.104l-.762-1.763-.887.224.2 1.975c-.208.132-.4.287-.563.47l-1.824-.763-.462.81 1.555 1.34c-.047.218-.074.44-.074.675l-1.833.8.24.925 2-.16zm.623-.99c-.27-1.042.32-2.092 1.322-2.342 1.004-.254 2.035.39 2.307 1.43.27 1.038-.32 2.088-1.323 2.342-1.005.25-2.036-.386-2.307-1.43zM10.624 7.184l1.46.156.163 3.074c.43.153.83.36 1.196.625l2.512-1.504.924 1.186-1.886 2.19c.21.453.36.94.434 1.452l2.705.76-.16 1.522-2.793.158c-.172.484-.416.928-.713 1.322l1.404 2.553-1.138.962-2.16-2.014c-.408.176-.842.295-1.295.342l-.77 2.973-1.462-.156L8.88 19.6c-.366-.16-.697-.37-1.007-.62l-2.7 1.61-.922-1.185 2.13-2.477c-.132-.336-.23-.688-.286-1.055L3 15.003l.152-1.522 3.203-.18c.128-.35.293-.67.487-.972l-1.586-2.88 1.14-.962 2.317 2.163c.35-.178.724-.31 1.112-.39l.8-3.076M10.57 18.19c1.513 0 2.814-1.196 2.98-2.802.173-1.713-1.02-3.25-2.67-3.432-.11-.012-.217-.018-.323-.018-1.513 0-2.812 1.194-2.975 2.8-.175 1.714 1.02 3.25 2.67 3.433.107.014.214.02.32.02M9.72 5.88l-.26 1.003-.59 2.273-1.657-1.548-.778-.727-.814.688-1.14.962-.752.635.475.86 1.172 2.13-2.292.128-1.024.057-.1 1.02-.153 1.523-.1 1 .968.274 2.244.633-1.578 1.832-.64.744.602.775.92 1.187.652.838.91-.544 1.937-1.154.125 2.383.052 1.02 1.018.11 1.46.156 1.03.11.26-1.002.58-2.236.035-.01 1.63 1.52.78.728.814-.688 1.14-.963.75-.634-.476-.86-1.056-1.92.12-.22 2.055-.115 1.018-.06.107-1.014.16-1.52.105-1.007-.975-.274-2.007-.565c-.024-.086-.05-.17-.077-.256l1.417-1.646.64-.745-.603-.776-.924-1.186-.65-.837-.91.546-1.888 1.13c-.015-.01-.03-.017-.046-.025l-.124-2.334-.054-1.02-1.017-.11-1.46-.155-1.028-.11zm.85 11.11c-.063 0-.125-.004-.188-.012-.995-.11-1.716-1.06-1.608-2.118.1-.982.865-1.722 1.78-1.722.063 0 .126.003.19.01.996.11 1.717 1.06 1.61 2.12-.1.98-.868 1.72-1.785 1.72z" fill="#fff"/></svg><view id="icon_minor_alert" viewBox="1051 799 18 18"/><svg viewBox="0 0 18 18" enable-background="new 0 0 18 18" width="18" height="18" x="1051" y="799"><path d="M8.065 14.05h1.87v1.376h-1.87V14.05zm.15-7.888h1.57l-.167 6.714H8.383l-.167-6.714zM9 1.59l7.76 15.38H1.24L9 1.59M9 0c-.165 0-.33.124-.454.37L.104 17.1c-.25.495-.033.9.48.9h16.83c.515 0 .732-.405.482-.9L9.454.37C9.33.125 9.164 0 9 0z" fill="#F9BF3B"/></svg><view id="icon_monitor" viewBox="882 799 30 30"/><svg width="30" height="30" viewBox="0 0 30 30" x="882" y="799"><path d="M240.553 110.978l-9.336-8.247-1.12 1.262-9.218-8.142.003-.006h-.01l-.003-.002-.646-.132-.646-.132.207.63.213.628.006-.004 9.217 8.14-1.118 1.256 9.336 8.245c.967.86 2.453.77 3.314-.197.863-.966.775-2.445-.2-3.298z" fill="none" stroke="#fff" stroke-width=".954" stroke-linecap="round" stroke-linejoin="round" stroke-miterlimit="10"/><g fill="none" stroke="#fff" stroke-width=".954" stroke-miterlimit="10"><path d="M243.113 94.697l-4.63 5.19c-.524.59-1.43.642-2.024.118l-1.708-1.512c-.59-.522-.645-1.425-.12-2.014l4.626-5.19c-2.137-.605-4.53.002-6.104 1.768-1.52 1.71-1.875 4.053-1.113 6.048-.124.083-.237.183-.342.3l-2.98 3.34 1.403 1.243 1.122-1.26 2.814 2.484 1.857-2.088c.107-.115.19-.24.258-.373 2.087.516 4.384-.108 5.903-1.818 1.575-1.763 1.9-4.2 1.04-6.238zM228.125 106.226l1.12-1.256-1.404-1.24-6.136 6.88c-.64.718-.573 1.825.147 2.466l1.593 1.405c.723.64 1.836.574 2.482-.146l5.013-5.623-2.813-2.484z"/></g><path d="M240.553 110.978l-9.336-8.247-1.12 1.262-9.218-8.142.003-.006h-.01l-.003-.002-.646-.132-.646-.132.207.63.213.628.006-.004 9.217 8.14-1.118 1.256 9.336 8.245c.967.86 2.453.77 3.314-.197.863-.966.775-2.445-.2-3.298z" fill="none" stroke="#fff" stroke-width=".954" stroke-linecap="round" stroke-linejoin="round" stroke-miterlimit="10"/><g fill="none" stroke="#fff" stroke-width=".954" stroke-miterlimit="10"><path d="M243.113 94.697l-4.63 5.19c-.524.59-1.43.642-2.024.118l-1.708-1.512c-.59-.522-.645-1.425-.12-2.014l4.626-5.19c-2.137-.605-4.53.002-6.104 1.768-1.52 1.71-1.875 4.053-1.113 6.048-.124.083-.237.183-.342.3l-2.98 3.34 1.403 1.243 1.122-1.26 2.814 2.484 1.857-2.088c.107-.115.19-.24.258-.373 2.087.516 4.384-.108 5.903-1.818 1.575-1.763 1.9-4.2 1.04-6.238zM228.125 106.226l1.12-1.256-1.404-1.24-6.136 6.88c-.64.718-.573 1.825.147 2.466l1.593 1.405c.723.64 1.836.574 2.482-.146l5.013-5.623-2.813-2.484z"/></g><path d="M311.383 113.493c0 .574-.43 1.038-.96 1.038h-22.08c-.532 0-.96-.463-.96-1.037V93.97c0-.575.428-1.04.96-1.04h22.08c.53 0 .96.465.96 1.04v19.523z" fill="none" stroke="#fff" stroke-width="1.2" stroke-miterlimit="10"/><path d="M289.408 105.693c-.566 0-.566.676 0 .676h3.67l2.014 4.055c.203.407.785.334.818-.103l.914-9.354s2.195 7.2 2.972 7.2h2.335c.196 0 .403-.147.423-.3l.69-4.266s3.146 5.41 3.702 5.41h2.613c.566 0 .566-.677 0-.677h-2.34l-3.89-6.466c-.087-.455-.78-.44-.84.016l-.74 5.605h-1.6l-3.327-8.99c-.065-.462-.81-.447-.845.017l-.796 10.246-1.418-2.857c-.046-.09-.273-.213-.395-.213h-3.96z" fill="#fff"/><path d="M311.383 113.493c0 .574-.43 1.038-.96 1.038h-22.08c-.532 0-.96-.463-.96-1.037V93.97c0-.575.428-1.04.96-1.04h22.08c.53 0 .96.465.96 1.04v19.523z" fill="none" stroke="#fff" stroke-width="1.2" stroke-miterlimit="10"/><path d="M289.408 105.693c-.566 0-.566.676 0 .676h3.67l2.014 4.055c.203.407.785.334.818-.103l.914-9.354s2.195 7.2 2.972 7.2h2.335c.196 0 .403-.147.423-.3l.69-4.266s3.146 5.41 3.702 5.41h2.613c.566 0 .566-.677 0-.677h-2.34l-3.89-6.466c-.087-.455-.78-.44-.84.016l-.74 5.605h-1.6l-3.327-8.99c-.065-.462-.81-.447-.845.017l-.796 10.246-1.418-2.857c-.046-.09-.273-.213-.395-.213h-3.96z" fill="#fff"/><path d="M27.383 24.493c0 .574-.43 1.038-.96 1.038H4.342c-.53 0-.957-.463-.957-1.037V4.97c0-.575.428-1.04.958-1.04h22.084c.53 0 .96.464.96 1.04v19.523z" fill="none" stroke="#fff" stroke-width="1.2" stroke-miterlimit="10"/><path d="M5.41 16.693c-.568 0-.568.676 0 .676h3.67l2.01 4.055c.204.407.786.334.82-.103l.913-9.354s2.196 7.2 2.972 7.2h2.335c.195 0 .402-.147.422-.3l.69-4.266s3.146 5.41 3.702 5.41h2.613c.566 0 .566-.677 0-.677h-2.34L19.33 12.87c-.088-.454-.78-.44-.842.016l-.74 5.606H16.15L12.822 9.5c-.066-.46-.81-.446-.845.018l-.796 10.246-1.416-2.857c-.046-.09-.274-.213-.396-.213h-3.96z" fill="#fff"/></svg><view id="icon_nav_big_arrow_down" viewBox="911 755 12 6"/><svg viewBox="0 0 12 6" enable-background="new 0 0 12 6" width="12" height="6" x="911" y="755"><path d="M.244 1.297L5.377 5.79c.076.067.17.118.272.155.204.073.437.073.642 0 .102-.037.195-.088.272-.156l5.19-4.548c.33-.283.33-.746 0-1.03-.327-.282-.858-.282-1.187 0L5.94 4.317 1.434.266C1.106-.02.574-.02.244.267c-.326.284-.326.743 0 1.03z" fill="#444"/></svg><view id="icon_nav_big_arrow_down_disable" viewBox="923 755 12 6"/><svg viewBox="0 0 12 6" enable-background="new 0 0 12 6" width="12" height="6" x="923" y="755"><path d="M.244 1.297L5.377 5.79c.076.067.17.118.272.155.204.073.437.073.642 0 .102-.037.195-.088.272-.156l5.19-4.548c.33-.283.33-.746 0-1.03-.327-.282-.858-.282-1.187 0L5.94 4.317 1.434.266C1.106-.02.574-.02.244.267c-.326.284-.326.743 0 1.03z" fill="#ccc"/></svg><view id="icon_nav_big_arrow_down_hover" viewBox="899 755 12 6"/><svg viewBox="0 0 12 6" enable-background="new 0 0 12 6" width="12" height="6" x="899" y="755"><path d="M.244 1.297L5.377 5.79c.076.067.17.118.272.155.204.073.437.073.642 0 .102-.037.195-.088.272-.156l5.19-4.548c.33-.283.33-.746 0-1.03-.327-.282-.858-.282-1.187 0L5.94 4.317 1.434.266C1.106-.02.574-.02.244.267c-.326.284-.326.743 0 1.03z" fill="#05A4FF"/></svg><view id="icon_nav_big_arrow_right" viewBox="893 847 6 12"/><svg viewBox="0 0 6 12" enable-background="new 0 0 6 12" width="6" height="12" x="893" y="847"><path d="M1.296 11.755l4.492-5.13c.07-.076.12-.17.16-.273.07-.207.07-.437 0-.643-.04-.104-.09-.195-.16-.274L1.242.246C.958-.082.496-.082.212.246c-.28.328-.28.86 0 1.19L4.32 6.06.268 10.57c-.285.328-.285.858 0 1.187.283.327.74.327 1.028 0z" fill="#999"/></svg><view id="icon_nav_big_arrow_right_disable" viewBox="899 847 6 12"/><svg viewBox="0 0 6 12" enable-background="new 0 0 6 12" width="6" height="12" x="899" y="847"><path d="M1.296 11.755l4.492-5.13c.07-.076.12-.17.16-.273.07-.207.07-.437 0-.643-.04-.104-.09-.195-.16-.274L1.242.246C.958-.082.496-.082.212.246c-.28.328-.28.86 0 1.19L4.32 6.06.268 10.57c-.285.328-.285.858 0 1.187.283.327.74.327 1.028 0z" fill="#ccc"/></svg><view id="icon_nav_big_arrow_right_gray" viewBox="905 847 6 12"/><svg viewBox="0 0 6 12" enable-background="new 0 0 6 12" width="6" height="12" x="905" y="847"><path d="M1.296 11.755l4.492-5.13c.07-.076.12-.17.16-.273.07-.207.07-.437 0-.643-.04-.104-.09-.195-.16-.274L1.242.246C.958-.082.496-.082.212.246c-.28.328-.28.86 0 1.19L4.32 6.06.268 10.57c-.285.328-.285.858 0 1.187.283.327.74.327 1.028 0z" fill="#444"/></svg><view id="icon_nav_big_arrow_right_hover" viewBox="911 847 6 12"/><svg viewBox="0 0 6 12" enable-background="new 0 0 6 12" width="6" height="12" x="911" y="847"><path d="M1.296 11.755l4.492-5.13c.07-.076.12-.17.16-.273.07-.207.07-.437 0-.643-.04-.104-.09-.195-.16-.274L1.242.246C.958-.082.496-.082.212.246c-.28.328-.28.86 0 1.19L4.32 6.06.268 10.57c-.285.328-.285.858 0 1.187.283.327.74.327 1.028 0z" fill="#05A4FF"/></svg><view id="icon_nav_sm_arrow_down" viewBox="1037 697 8 4"/><svg viewBox="0 0 8 4" enable-background="new 0 0 8 4" width="8" height="4" x="1037" y="697"><path d="M.163.864l3.42 2.995c.05.044.113.08.182.104.137.048.29.048.428 0 .068-.025.13-.06.183-.105L7.836.827c.22-.19.22-.496 0-.685-.218-.19-.572-.19-.79 0L3.957 2.878.955.178c-.22-.19-.573-.19-.792 0-.218.19-.218.495 0 .686z" fill="#444"/></svg><view id="icon_nav_sm_arrow_down_disable" viewBox="1029 697 8 4"/><svg viewBox="0 0 8 4" enable-background="new 0 0 8 4" width="8" height="4" x="1029" y="697"><path d="M.163.864l3.42 2.995c.05.044.113.08.182.104.137.048.29.048.428 0 .068-.025.13-.06.183-.105L7.836.827c.22-.19.22-.496 0-.685-.218-.19-.572-.19-.79 0L3.957 2.878.955.178c-.22-.19-.573-.19-.792 0-.218.19-.218.495 0 .686z" fill="#ccc"/></svg><view id="icon_nav_sm_arrow_down_hover" viewBox="1005 697 8 4"/><svg viewBox="0 0 8 4" enable-background="new 0 0 8 4" width="8" height="4" x="1005" y="697"><path d="M.163.864l3.42 2.995c.05.044.113.08.182.104.137.048.29.048.428 0 .068-.025.13-.06.183-.105L7.836.827c.22-.19.22-.496 0-.685-.218-.19-.572-.19-.79 0L3.957 2.878.955.178c-.22-.19-.573-.19-.792 0-.218.19-.218.495 0 .686z" fill="#05A4FF"/></svg><view id="icon_nav_sm_arrow_right" viewBox="1110 772 4 8"/><svg viewBox="0 0 4 8" enable-background="new 0 0 4 8" width="4" height="8" x="1110" y="772"><path d="M.864 7.837l2.995-3.42c.044-.052.08-.114.104-.183.048-.137.048-.29 0-.428-.026-.068-.06-.13-.105-.18L.827.163c-.19-.22-.496-.22-.686 0-.19.22-.19.573 0 .792L2.878 4.04l-2.7 3.005c-.19.22-.19.572 0 .792.19.218.495.218.686 0z" fill="#999"/></svg><view id="icon_nav_sm_arrow_right_disable" viewBox="1110 764 4 8"/><svg viewBox="0 0 4 8" enable-background="new 0 0 4 8" width="4" height="8" x="1110" y="764"><path d="M.864 7.837l2.995-3.42c.044-.052.08-.114.104-.183.048-.137.048-.29 0-.428-.026-.068-.06-.13-.105-.18L.827.163c-.19-.22-.496-.22-.686 0-.19.22-.19.573 0 .792L2.878 4.04l-2.7 3.005c-.19.22-.19.572 0 .792.19.218.495.218.686 0z" fill="#ccc"/></svg><view id="icon_nav_sm_arrow_right_hover" viewBox="1109 829 4 8"/><svg viewBox="0 0 4 8" enable-background="new 0 0 4 8" width="4" height="8" x="1109" y="829"><path d="M.864 7.837l2.995-3.42c.044-.052.08-.114.104-.183.048-.137.048-.29 0-.428-.026-.068-.06-.13-.105-.18L.827.163c-.19-.22-.496-.22-.686 0-.19.22-.19.573 0 .792L2.878 4.04l-2.7 3.005c-.19.22-.19.572 0 .792.19.218.495.218.686 0z" fill="#05A4FF"/></svg><view id="icon_overview" viewBox="1053 725 30 30"/><svg width="30" height="30" viewBox="0 0 30 30" x="1053" y="725"><path d="M26.466 14.49l-1.705-1.688v-.116h-.116L21.14 9.212h-.002l-6.002-5.955c-.264-.257-.683-.257-.948 0L8.18 9.212 2.857 14.49c-.26.26-.26.68 0 .938.26.258.683.258.94 0l.767-.76v12.397H24.76V14.672l.764.755c.26.258.684.258.94 0 .262-.258.262-.678.002-.937zM11.31 25.744h-.013c-.032-.004-.07-.018-.095-.045v-.003c-.032-.027-.05-.068-.05-.11h.003-.003V14.09c0-.043.018-.07.05-.104.023-.037.066-.054.104-.054v.01H17.902v-.01c.04 0 .074.017.107.054h.003c.03.032.047.06.047.104v11.494h-.004v.002h.004c0 .04-.016.082-.053.11h.002c-.03.028-.06.042-.105.046H11.31zm12.123 0H19.37c.012-.05.016-.102.016-.156V14.092c0-.4-.166-.775-.432-1.032-.273-.278-.645-.445-1.05-.445h-6.596c-.408 0-.782.167-1.044.445-.277.257-.442.633-.442 1.032v11.496c0 .055.016.105.023.156H5.897V13.34l4.176-4.128h-.005L14.66 4.66l4.585 4.552h.002l4.186 4.13v12.402z" fill="#fff"/></svg><view id="icon_plus" viewBox="879 847 14 14"/><svg viewBox="0 0 14 14" enable-background="new 0 0 14 14" width="14" height="14" x="879" y="847"><path d="M7 0C3.14 0 0 3.14 0 7s3.14 7 7 7 7-3.14 7-7-3.14-7-7-7zm0 13.58C3.37 13.58.42 10.63.42 7S3.37.42 7 .42 13.58 3.37 13.58 7 10.63 13.58 7 13.58zM7.407 3.126V6.59h3.466v.817H7.407v3.465H6.59V7.41H3.127v-.82H6.59V3.127h.817z" fill="#69929E"/></svg><view id="icon_progressbar_indicator" viewBox="667 697 338 4"/><svg viewBox="0 0 338 4" enable-background="new 0 0 338 4" width="338" height="4" x="667" y="697"><path opacity=".2" fill="#05A4FF" d="M0 0h67.59v4H0z"/><path opacity=".4" fill="#05A4FF" d="M67.59 0h67.592v4h-67.59z"/><path opacity=".6" fill="#05A4FF" d="M135.228 0h67.59v4h-67.59z"/><path opacity=".8" fill="#05A4FF" d="M202.82 0h67.59v4h-67.59z"/><path fill="#05A4FF" d="M270.41 0H338v4h-67.59z"/></svg><view id="icon_quick_view" viewBox="1061 829 16 16"/><svg viewBox="0 0 16 16" enable-background="new 0 0 16 16" width="16" height="16" x="1061" y="829"><path d="M4.57 5.943c.458 0 1.258.23 1.6.457v-.343h7.087V7.2H7.2c.457.457.8 1.6.8 1.83h5.257v1.142H8C7.657 12 6.4 13.257 4.57 13.257v1.6h10.287V1.143H4.57v4.8zm1.6-2.972h7.087v1.144H6.17V2.97z" fill="none"/><path fill="#1F2330" d="M6.17 2.97h7.087v1.144H6.17zM3.43 0v6.057c-1.03.23-2.06 1.143-2.4 2.057s-.344 1.943 0 2.857c.227.573.57 1.03 1.027 1.373L0 15.43l.8.57 2.057-3.086c.23.114.343.114.57.23V16H16V0H3.43zM1.713 9.6c0-1.486 1.257-2.743 2.743-2.743S7.2 8.114 7.2 9.6s-1.257 2.743-2.743 2.743S1.714 11.086 1.714 9.6zm13.143 5.257H4.57v-1.6C6.4 13.143 7.77 12 8 10.17h5.257V9.03H8c0-.23-.457-1.373-.914-1.83h6.17V6.057H6.172V6.4c-.342-.23-1.142-.457-1.6-.457v-4.8h10.287v13.714z"/></svg><view id="icon_quick_view_hover" viewBox="1077 829 16 16"/><svg viewBox="0 0 16 16" enable-background="new 0 0 16 16" width="16" height="16" x="1077" y="829"><path d="M4.57 5.943c.458 0 1.258.23 1.6.457v-.343h7.087V7.2H7.2c.457.457.8 1.6.8 1.83h5.257v1.142H8C7.657 12 6.4 13.257 4.57 13.257v1.6h10.287V1.143H4.57v4.8zm1.6-2.972h7.087v1.144H6.17V2.97z" fill="none"/><path fill="#09f" d="M6.17 2.97h7.087v1.144H6.17zM3.43 0v6.057c-1.03.23-2.06 1.143-2.4 2.057s-.344 1.943 0 2.857c.227.573.57 1.03 1.027 1.373L0 15.43l.8.57 2.057-3.086c.23.114.343.114.57.23V16H16V0H3.43zM1.713 9.6c0-1.486 1.257-2.743 2.743-2.743S7.2 8.114 7.2 9.6s-1.257 2.743-2.743 2.743S1.714 11.086 1.714 9.6zm13.143 5.257H4.57v-1.6C6.4 13.143 7.77 12 8 10.17h5.257V9.03H8c0-.23-.457-1.373-.914-1.83h6.17V6.057H6.172V6.4c-.342-.23-1.142-.457-1.6-.457v-4.8h10.287v13.714z"/></svg><view id="icon_refresh" viewBox="865 847 14 14"/><svg viewBox="0 0 14 14" enable-background="new 0 0 14 14" width="14" height="14" x="865" y="847"><path d="M6.906 12.834c-3.178 0-5.754-2.612-5.754-5.834s2.576-5.834 5.754-5.834c1.48 0 2.83.57 3.847 1.5L9.213 4.23 14 5.463 12.96.428l-1.395 1.415C10.34.7 8.705 0 6.905 0 3.093 0 0 3.134 0 7s3.09 7 6.906 7c2.828 0 5.256-1.726 6.325-4.193l-1.137-.29c-.93 1.96-2.9 3.317-5.187 3.317z" fill="#444"/></svg><view id="icon_refresh_active" viewBox="851 847 14 14"/><svg viewBox="0 0 14 14" enable-background="new 0 0 14 14" width="14" height="14" x="851" y="847"><path d="M6.906 12.834c-3.178 0-5.754-2.612-5.754-5.834s2.576-5.834 5.754-5.834c1.48 0 2.83.57 3.847 1.5L9.213 4.23 14 5.463 12.96.428l-1.395 1.415C10.34.7 8.705 0 6.905 0 3.093 0 0 3.134 0 7s3.09 7 6.906 7c2.828 0 5.256-1.726 6.325-4.193l-1.137-.29c-.93 1.96-2.9 3.317-5.187 3.317z" fill="#09f"/></svg><view id="icon_right" viewBox="697 764 30 110"/><svg viewBox="0 0 30 110" enable-background="new 0 0 30 110" width="30" height="110" x="697" y="764"><style type="text/css">.st0{fill:#ccc}.st1{fill:none}</style><title>icon_left_hover1</title><image width="16" height="120" xlink:href="4C7B7328AB5806F9.png" transform="matrix(-.99 0 0 .99 15.465 -4.445)" overflow="visible" opacity=".2" enable-background="new"/><path class="st0" d="M9.4 1.5h1v106h-1z"/><path class="st1" d="M10.4-.5h20v110h-20z"/><path class="st0" d="M18.2 49.6l6.1 7.4-6.1 7.4 1.6 1.6 7.4-9-7.4-9z"/></svg><view id="icon_right_arrow" viewBox="993 847 10.5 10"/><svg width="10.5" height="10" viewBox="0 0 10.5 10" x="993" y="847"><path fill="#fff" d="M.75 10V0l9 5z"/></svg><view id="icon_right_hover" viewBox="667 764 30 110"/><svg viewBox="0 0 30 110" enable-background="new 0 0 30 110" width="30" height="110" x="667" y="764"><style type="text/css">.st0{fill:#ccc}.st1{fill:none}.st2{fill:#444}</style><title>icon_left_hover1</title><image width="16" height="120" xlink:href="4C7B7328AB5806F9.png" transform="matrix(-.99 0 0 .99 15.45 -4.445)" overflow="visible" opacity=".2" enable-background="new"/><path class="st0" d="M9.4 1.5h1v106h-1z"/><path class="st1" d="M10.4-.5h20v110h-20z"/><path class="st2" d="M18.2 49.6l6.1 7.4-6.1 7.4 1.6 1.6 7.4-9-7.4-9z"/></svg><view id="icon_search" viewBox="1069 799 18 18"/><svg viewBox="0 0 18 18" enable-background="new 0 0 18 18" width="18" height="18" x="1069" y="799"><path d="M7.565 2.088c-2.785 0-4.972 2.288-4.972 4.972s2.188 4.874 4.972 4.972c2.785 0 4.972-2.288 4.972-4.972 0-2.784-2.287-4.972-4.972-4.972zM3.69 8.055v.298c0-.497-.3-1.094-.3-1.79 0-1.99 1.59-3.482 3.578-3.482.298 0 .45 0 .748.2-2.188.5-4.026 2.388-4.026 4.775z" fill="none"/><path d="M16.814 15.216l-3.878-3.878c.994-1.194 1.492-2.685 1.492-4.375 0-3.878-3.083-6.96-6.96-6.96C3.687 0 .503 3.082.503 6.962c0 3.78 3.083 6.96 6.96 6.96 1.195 0 2.19-.298 3.184-.795.1.2 3.978 4.177 3.978 4.177.497.497.994.697 1.492.697.398 0 .697-.1.994-.398.598-.6.498-1.593-.298-2.388zm-9.25-3.183c-2.784-.1-4.97-2.288-4.97-4.972s2.187-4.97 4.97-4.97c2.686 0 4.973 2.187 4.973 4.97 0 2.686-2.187 4.973-4.972 4.973zM3.39 6.564c0 .696.3 1.292.3 1.79v-.3c0-2.385 1.888-4.276 4.076-4.773-.298-.198-.597-.198-.895-.198-1.988 0-3.48 1.493-3.48 3.482z" fill="#eee"/></svg><view id="icon_search_14X15" viewBox="1099 874 14 15"/><svg viewBox="0 0 14 15" enable-background="new 0 0 14 15" width="14" height="15" x="1099" y="874"><path d="M13.546 12.494c-.175-.21-1.375-1.59-2.792-3.223.736-.966 1.177-2.16 1.177-3.457C11.933 2.6 9.26 0 5.967 0 2.67 0 0 2.6 0 5.813c0 3.21 2.67 5.815 5.966 5.815.862 0 1.68-.182 2.42-.503 1.435 1.66 2.654 3.076 2.837 3.28.542.608.945.88 1.91.187 0 0 .106-.07.146-.108.043-.033.132-.122.132-.122.863-.813.66-1.245.134-1.868zm-7.58-2.376c-2.44 0-4.42-1.928-4.42-4.305 0-2.378 1.98-4.306 4.42-4.306s4.417 1.927 4.417 4.306c0 2.377-1.976 4.305-4.417 4.305z" opacity=".4" fill="#ccc" enable-background="new"/></svg><view id="icon_search_menu" viewBox="795 890 16 16"/><svg viewBox="0 0 16 16" enable-background="new 0 0 16 16" width="16" height="16" x="795" y="890"><path d="M14.4 15.3l-3.2-4.9c.7-.6 1.2-1.3 1.6-2.2.6-1.4.6-3 0-4.5-.6-1.4-1.7-2.6-3.2-3.2-1.4-.6-3-.6-4.5 0-1.4.7-2.5 1.8-3.1 3.2-1.2 3 .2 6.4 3.2 7.6.7.3 1.5.4 2.2.4.9 0 1.8-.2 2.5-.6l3.2 4.9 1.3-.7zM5.8 9.9c-1.1-.4-1.9-1.2-2.4-2.3-.4-1.1-.4-2.2 0-3.3.7-1.7 2.3-2.7 4-2.7.5 0 1.1.1 1.6.3 1.1.4 1.9 1.3 2.3 2.3s.4 2.2 0 3.3c-.8 2.3-3.3 3.3-5.5 2.4z" fill="#eee"/></svg><view id="icon_search_sm" viewBox="779 890 16 16"/><svg viewBox="0 0 16 16" enable-background="new 0 0 16 16" width="16" height="16" x="779" y="890"><path d="M14.4 15.3l-3.2-4.9c.7-.6 1.2-1.3 1.6-2.2.6-1.4.6-3 0-4.5-.6-1.4-1.7-2.6-3.2-3.2-1.4-.6-3-.6-4.5 0-1.4.7-2.5 1.8-3.1 3.2-1.2 3 .2 6.4 3.2 7.6.7.3 1.5.4 2.2.4.9 0 1.8-.2 2.5-.6l3.2 4.9 1.3-.7zM5.8 9.9c-1.1-.4-1.9-1.2-2.4-2.3-.4-1.1-.4-2.2 0-3.3.7-1.7 2.3-2.7 4-2.7.5 0 1.1.1 1.6.3 1.1.4 1.9 1.3 2.3 2.3s.4 2.2 0 3.3c-.8 2.3-3.3 3.3-5.5 2.4z" fill="#09f"/></svg><view id="icon_search_sm_hover" viewBox="763 890 16 16"/><svg viewBox="0 0 16 16" enable-background="new 0 0 16 16" width="16" height="16" x="763" y="890"><path d="M14.4 15.3l-3.2-4.9c.7-.6 1.2-1.3 1.6-2.2.6-1.4.6-3 0-4.5-.6-1.4-1.7-2.6-3.2-3.2-1.4-.6-3-.6-4.5 0-1.4.7-2.5 1.8-3.1 3.2-1.2 3 .2 6.4 3.2 7.6.7.3 1.5.4 2.2.4.9 0 1.8-.2 2.5-.6l3.2 4.9 1.3-.7zM5.8 9.9c-1.1-.4-1.9-1.2-2.4-2.3-.4-1.1-.4-2.2 0-3.3.7-1.7 2.3-2.7 4-2.7.5 0 1.1.1 1.6.3 1.1.4 1.9 1.3 2.3 2.3s.4 2.2 0 3.3c-.8 2.3-3.3 3.3-5.5 2.4z" fill="#1F2330"/></svg><view id="icon_space_burst" viewBox="993 725 30 30"/><svg viewBox="0 0 30 30" enable-background="new 0 0 30 30" width="30" height="30" x="993" y="725"><path d="M2.536 15.9c-1.516 1.877-1.734 4.508-.522 6.596 1.21 2.09 3.59 3.222 5.975 2.85 2.026-.32 3.345-1.854 4.724-3.227 1.856-1.853 3.707-3.712 5.563-5.565 2.728-2.72 5.45-5.447 8.174-8.166-3.722.995-7.434 1.99-11.16 2.99-2.528.684-5.062 1.356-7.597 2.04-1.878.506-3.868.885-5.157 2.48zM9.548 26.246C10.418 28.494 12.588 30 15 30c2.413-.004 4.583-1.506 5.452-3.754.74-1.916.074-3.828-.43-5.71-.672-2.53-1.355-5.065-2.03-7.6-1-3.716-1.995-7.44-2.99-11.16-.995 3.722-1.995 7.444-2.99 11.16-.677 2.534-1.353 5.07-2.032 7.6-.504 1.882-1.172 3.794-.432 5.71zM22.013 25.346c2.384.372 4.774-.756 5.975-2.85 1.205-2.092.992-4.72-.52-6.596-1.29-1.596-3.278-1.975-5.16-2.48-2.527-.685-5.064-1.357-7.594-2.042-3.72-.998-7.443-1.994-11.162-2.99 2.722 2.72 5.447 5.447 8.174 8.166 1.857 1.854 3.707 3.712 5.56 5.564 1.38 1.374 2.7 2.907 4.727 3.228zM27.468 14.096c1.512-1.873 1.73-4.508.52-6.594-1.21-2.094-3.59-3.227-5.975-2.85-2.027.322-3.348 1.856-4.726 3.227-1.854 1.854-3.703 3.71-5.56 5.56-2.728 2.724-5.453 5.448-8.175 8.17 3.72-.997 7.44-1.995 11.162-2.997 2.53-.676 5.066-1.36 7.594-2.033 1.882-.512 3.87-.887 5.16-2.484zM2.536 14.096C1.02 12.223.802 9.588 2.014 7.502c1.21-2.094 3.59-3.227 5.975-2.85 2.026.322 3.345 1.856 4.726 3.227 1.854 1.854 3.705 3.71 5.56 5.56 2.73 2.724 5.452 5.448 8.175 8.17-3.72-.997-7.434-1.995-11.16-2.997-2.528-.676-5.062-1.36-7.597-2.033-1.878-.512-3.868-.887-5.157-2.484z" fill="#fff" opacity=".4"/><g opacity=".7"><linearGradient id="eva" gradientUnits="userSpaceOnUse" x1="15" y1="28.225" x2="15"><stop offset="0" stop-color="#1EA06C"/><stop offset="1" stop-color="#7AA351"/></linearGradient><path d="M20.452 3.752C19.582 1.5 17.412-.002 15.002 0c-2.415.002-4.585 1.5-5.454 3.752-.74 1.91-.072 3.828.432 5.707.68 2.534 1.356 5.063 2.03 7.6.997 3.718 1.997 7.44 2.99 11.165.997-3.725 1.99-7.447 2.993-11.166.674-2.536 1.357-5.066 2.03-7.6.503-1.88 1.17-3.798.43-5.708z" fill="url(#eva)"/></g></svg><view id="icon_spinner" viewBox="787 764 65 65"/><svg width="65" height="65" viewBox="0 0 65 65" x="787" y="764"><g fill="#05A4FF"><path d="M62.795 42.414l-9.36-3.04c-2.352 7.235-8.152 12.38-14.99 14.217l2.547 9.506c9.946-2.673 18.383-10.157 21.803-20.682z" opacity=".6"/><path d="M51.354 7.202l-5.786 7.96c6.156 4.476 9.256 11.583 8.892 18.655l9.826.515c.53-10.288-3.98-20.625-12.932-27.13z" opacity=".8"/><path d="M14.33 7.202l5.785 7.96c6.155-4.47 13.872-5.222 20.485-2.69l3.526-9.186C34.508-.398 23.283.696 14.33 7.202z"/><path d="M8.37 12.867c-6.474 8.01-8.9 19.02-5.48 29.55l9.358-3.044c-2.35-7.234-.684-14.807 3.77-20.312L8.37 12.868z" opacity=".2"/><path d="M14.688 44.472l-8.252 5.36c5.614 8.63 15.34 14.345 26.406 14.345v-9.843c-7.61 0-14.293-3.926-18.154-9.862z" opacity=".4"/></g></svg><view id="icon_success" viewBox="699 890 16 16"/><svg viewBox="0 0 16 16" enable-background="new 0 0 16 16" width="16" height="16" x="699" y="890"><path d="M8 .914C4.114.914.914 4.114.914 8s3.2 7.086 7.086 7.086 7.086-3.2 7.086-7.086S11.886.914 8 .914zM6.857 11.886L2.743 7.77l1.37-1.37 2.744 2.743 5.03-5.03 1.37 1.372-6.4 6.4z" fill="none"/><path d="M8 0C3.543 0 0 3.543 0 8s3.543 8 8 8 8-3.543 8-8-3.543-8-8-8zm0 15.086C4.114 15.086.914 11.886.914 8S4.114.914 8 .914s7.086 3.2 7.086 7.086-3.2 7.086-7.086 7.086zM11.886 4.114l-5.03 5.03L4.115 6.4l-1.37 1.37 4.113 4.116 6.4-6.4z" fill="#3c0"/></svg><view id="icon_troubleshoot" viewBox="852 799 30 30"/><svg width="30" height="30" viewBox="0 0 30 30" x="852" y="799"><path d="M240.553 110.978l-9.336-8.247-1.12 1.262-9.218-8.142.003-.006h-.01l-.003-.002-.646-.132-.646-.132.207.63.213.628.006-.004 9.217 8.14-1.118 1.256 9.336 8.245c.967.86 2.453.77 3.314-.197.863-.966.775-2.445-.2-3.298z" fill="none" stroke="#fff" stroke-width=".954" stroke-linecap="round" stroke-linejoin="round" stroke-miterlimit="10"/><g fill="none" stroke="#fff" stroke-width=".954" stroke-miterlimit="10"><path d="M243.113 94.697l-4.63 5.19c-.524.59-1.43.642-2.024.118l-1.708-1.512c-.59-.522-.645-1.425-.12-2.014l4.626-5.19c-2.137-.605-4.53.002-6.104 1.768-1.52 1.71-1.875 4.053-1.113 6.048-.124.083-.237.183-.342.3l-2.98 3.34 1.403 1.243 1.122-1.26 2.814 2.484 1.857-2.088c.107-.115.19-.24.258-.373 2.087.516 4.384-.108 5.903-1.818 1.575-1.763 1.9-4.2 1.04-6.238zM228.125 106.226l1.12-1.256-1.404-1.24-6.136 6.88c-.64.718-.573 1.825.147 2.466l1.593 1.405c.723.64 1.836.574 2.482-.146l5.013-5.623-2.813-2.484z"/></g><path d="M240.553 110.978l-9.336-8.247-1.12 1.262-9.218-8.142.003-.006h-.01l-.003-.002-.646-.132-.646-.132.207.63.213.628.006-.004 9.217 8.14-1.118 1.256 9.336 8.245c.967.86 2.453.77 3.314-.197.863-.966.775-2.445-.2-3.298z" fill="none" stroke="#fff" stroke-width=".954" stroke-linecap="round" stroke-linejoin="round" stroke-miterlimit="10"/><g fill="none" stroke="#fff" stroke-width=".954" stroke-miterlimit="10"><path d="M243.113 94.697l-4.63 5.19c-.524.59-1.43.642-2.024.118l-1.708-1.512c-.59-.522-.645-1.425-.12-2.014l4.626-5.19c-2.137-.605-4.53.002-6.104 1.768-1.52 1.71-1.875 4.053-1.113 6.048-.124.083-.237.183-.342.3l-2.98 3.34 1.403 1.243 1.122-1.26 2.814 2.484 1.857-2.088c.107-.115.19-.24.258-.373 2.087.516 4.384-.108 5.903-1.818 1.575-1.763 1.9-4.2 1.04-6.238zM228.125 106.226l1.12-1.256-1.404-1.24-6.136 6.88c-.64.718-.573 1.825.147 2.466l1.593 1.405c.723.64 1.836.574 2.482-.146l5.013-5.623-2.813-2.484z"/></g><path d="M311.383 113.493c0 .574-.43 1.038-.96 1.038h-22.08c-.532 0-.96-.463-.96-1.037V93.97c0-.575.428-1.04.96-1.04h22.08c.53 0 .96.465.96 1.04v19.523z" fill="none" stroke="#fff" stroke-width="1.2" stroke-miterlimit="10"/><path d="M289.408 105.693c-.566 0-.566.676 0 .676h3.67l2.014 4.055c.203.407.785.334.818-.103l.914-9.354s2.195 7.2 2.972 7.2h2.335c.196 0 .403-.147.423-.3l.69-4.266s3.146 5.41 3.702 5.41h2.613c.566 0 .566-.677 0-.677h-2.34l-3.89-6.466c-.087-.455-.78-.44-.84.016l-.74 5.605h-1.6l-3.327-8.99c-.065-.462-.81-.447-.845.017l-.796 10.246-1.418-2.857c-.046-.09-.273-.213-.395-.213h-3.96z" fill="#fff"/><path d="M311.383 113.493c0 .574-.43 1.038-.96 1.038h-22.08c-.532 0-.96-.463-.96-1.037V93.97c0-.575.428-1.04.96-1.04h22.08c.53 0 .96.465.96 1.04v19.523z" fill="none" stroke="#fff" stroke-width="1.2" stroke-miterlimit="10"/><path d="M289.408 105.693c-.566 0-.566.676 0 .676h3.67l2.014 4.055c.203.407.785.334.818-.103l.914-9.354s2.195 7.2 2.972 7.2h2.335c.196 0 .403-.147.423-.3l.69-4.266s3.146 5.41 3.702 5.41h2.613c.566 0 .566-.677 0-.677h-2.34l-3.89-6.466c-.087-.455-.78-.44-.84.016l-.74 5.605h-1.6l-3.327-8.99c-.065-.462-.81-.447-.845.017l-.796 10.246-1.418-2.857c-.046-.09-.273-.213-.395-.213h-3.96z" fill="#fff"/><g fill="none" stroke="#fff" stroke-width="1.2" stroke-miterlimit="10"><path d="M8.245 19.93c0 1.417-1.197 2.565-2.5 2.565s-2.5-1.148-2.5-2.564V14.8c0-1.418 1.197-2.566 2.5-2.566s2.5 1.148 2.5 2.566v5.13zM25.245 14.162h2v5h-2zM25.98 13.966c0-7.924-4.62-11.412-9.983-11.412S6.284 6.88 6.24 12.234M8.423 20.607s-.737 2.51 6.566 2.51"/><path d="M20.245 24.93c0 .68-.553 1.232-1.234 1.232h-2.53c-.682 0-1.234-.553-1.234-1.233v-.533c0-.682.553-1.234 1.234-1.234h2.53c.683 0 1.235.553 1.235 1.234v.532z"/></g></svg><view id="icon_unknown" viewBox="852 764 35 35"/><svg viewBox="0 0 35 35" enable-background="new 0 0 35 35" width="35" height="35" x="852" y="764"><path d="M0 0v35h35V0H0zm17.375 32.687c-8.457 0-15.312-6.855-15.312-15.312S8.918 2.063 17.375 2.063s15.312 6.855 15.312 15.312-6.855 15.312-15.312 15.312z" fill="#fff"/><path d="M17.375 2.937c-7.96 0-14.438 6.477-14.438 14.438s6.477 14.438 14.438 14.438 14.438-6.477 14.438-14.438S25.336 2.937 17.375 2.937z" fill="none"/><path d="M17.375 2.063c-8.457 0-15.312 6.855-15.312 15.312s6.855 15.312 15.312 15.312 15.312-6.855 15.312-15.312S25.832 2.063 17.375 2.063zm0 29.75c-7.96 0-14.438-6.477-14.438-14.438S9.414 2.937 17.375 2.937s14.438 6.477 14.438 14.438-6.477 14.438-14.438 14.438z" fill="#FAFAFA"/><circle cx="19.771" cy="17.522" r="1.5" fill="#FAFAFA"/><circle cx="24.648" cy="17.515" r="1.5" fill="#FAFAFA"/><circle cx="10.019" cy="17.507" r="1.5" fill="#FAFAFA"/><circle cx="14.895" cy="17.529" r="1.5" fill="#FAFAFA"/></svg><view id="icon_unknown_country" viewBox="887 764 35 35"/><svg viewBox="0 0 35 35" enable-background="new 0 0 35 35" width="35" height="35" x="887" y="764"><path d="M17.5 35C7.75 35 0 27.25 0 17.5S7.75 0 17.5 0 35 7.75 35 17.5 27.25 35 17.5 35zm0-31.5c-7.75 0-14 6.25-14 14s6.25 14 14 14 14-6.25 14-14-6.25-14-14-14z" fill="#95C1E7"/><g fill="#fff"><circle cx="9.5" cy="17.5" r="2.25"/><circle cx="17.5" cy="17.5" r="2.25"/><circle cx="25.5" cy="17.5" r="2.25"/></g></svg><view id="icon_unknown_flag" viewBox="1069 701 17 12"/><svg viewBox="0 0 17 12" enable-background="new 0 0 17 12" width="17" height="12" x="1069" y="701"><path fill="#eee" d="M.35.186h16.3v11.63H.35z"/><path d="M9.066 7.705H7.854c-.004-.172-.005-.278-.005-.315 0-.39.064-.71.194-.96s.39-.533.78-.847c.39-.313.622-.52.698-.616.118-.153.176-.323.176-.508 0-.258-.104-.478-.31-.66-.21-.185-.488-.277-.84-.277-.34 0-.622.096-.85.287-.23.19-.386.483-.472.875L6 4.535c.035-.562.276-1.038.725-1.43.448-.393 1.037-.59 1.766-.59.768 0 1.378.2 1.83.596.453.398.68.86.68 1.387 0 .29-.083.567-.25.828-.165.26-.52.615-1.066 1.063-.282.232-.458.418-.526.56-.067.14-.1.393-.092.757zm-1.212 1.78V8.16H9.19v1.323H7.854z" fill="#333"/></svg><view id="icon_unknown_live" viewBox="922 764 35 35"/><svg viewBox="0 0 35 35" enable-background="new 0 0 35 35" width="35" height="35" x="922" y="764"><path d="M0 0v35h35V0H0zm17.375 32.687c-8.457 0-15.312-6.855-15.312-15.312S8.918 2.063 17.375 2.063s15.312 6.855 15.312 15.312-6.855 15.312-15.312 15.312z"/><path d="M17.375 2.937c-7.96 0-14.438 6.477-14.438 14.438s6.477 14.438 14.438 14.438 14.438-6.477 14.438-14.438S25.336 2.937 17.375 2.937z" fill="none"/><path d="M17.375 2.063c-8.457 0-15.312 6.855-15.312 15.312s6.855 15.312 15.312 15.312 15.312-6.855 15.312-15.312S25.832 2.063 17.375 2.063zm0 29.75c-7.96 0-14.438-6.477-14.438-14.438S9.414 2.937 17.375 2.937s14.438 6.477 14.438 14.438-6.477 14.438-14.438 14.438z" fill="#95C1E7"/><circle cx="19.771" cy="17.522" r="1.5" fill="#95C1E7"/><circle cx="24.648" cy="17.515" r="1.5" fill="#95C1E7"/><circle cx="10.019" cy="17.507" r="1.5" fill="#95C1E7"/><circle cx="14.895" cy="17.529" r="1.5" fill="#95C1E7"/></svg></svg>